<svg width="269" height="116" viewBox="0 0 269 116" preserveAspectRatio="none" fill="none" xmlns="http://www.w3.org/2000/svg">
<path fill-rule="evenodd" clip-rule="evenodd" d="M0 23.6106V92.3894H6.72508V102.655H17.4851V107.788H30.9352V116H239.41V110.867H251.515V102.655H260.93V91.3629H269L269 23.6106H262.275V13.3451H251.515V8.21232H238.065V0H29.5901V8.21232H16.14V13.3451H5.38001V23.6106H0ZM0 116V105.734H9.44138e-05V116L0 116Z" fill="white"/>
<path fill-rule="evenodd" clip-rule="evenodd" d="M3.93064 24V91H10.4818V101H20.9635V106H34.0656V114H237.149V109H248.941V101H258.112V90H265.974L265.974 24H259.423V14H248.941V9H235.839V1H32.7554V9H19.6533V14H9.17154V24H3.93064ZM3.93064 114V104H3.93071V114H3.93064Z" fill="#402F5C"/>
</svg>
