<svg width="832" height="144" viewBox="0 0 832 144" fill="none" preserveAspectRatio="none" xmlns="http://www.w3.org/2000/svg">
<g clip-path="url(#clip0_522_279)">
<path d="M768.263 105.22L831.847 143.819L816.543 105.073L768.263 105.22Z" fill="white" stroke="white" stroke-miterlimit="10" stroke-linecap="round"/>
</g>
<path fill-rule="evenodd" clip-rule="evenodd" d="M4.77906 24.9769V13.7503H14.4381V8.13706H26.5121V0H799.516V8.31125H807.716V13.9915H814.275V25.3521H818V127H13.6596V121.388H3.99948V108.703H0V24.9769H4.77906Z" fill="white"/>
<path fill-rule="evenodd" clip-rule="evenodd" d="M7.30314 17.6867V31.6982H3.11865V104.971H5.9204V118.604H16.7622V124.674H794.886V120.352H804.071V111.602H811.213V99.5726H816.393V27.3929H812.233V16.4566H804.07V10.9886H793.867V1.09357H29.2926V10.681H17.0763V17.6867H7.30314ZM816.393 2.23944V1.09357H807.132V2.23944H816.393Z" fill="#402F5C"/>
<defs>
<clipPath id="clip0_522_279">
<rect width="64" height="39" fill="white" transform="matrix(-1 0 0 1 832 105)"/>
</clipPath>
</defs>
</svg>
