<svg width="106" height="295" viewBox="0 0 106 295" fill="none" xmlns="http://www.w3.org/2000/svg">
<path d="M11.0322 37.5486H18.6565V42.4302H11.0322V37.5486Z" fill="#E2E2E2"/>
<path d="M5.07577 68.5679H91.2563V180.825H5.07577V68.5679Z" fill="#433D4F"/>
<path d="M8.04398 71.6072H15.6376V132.499H8.04398V71.6072Z" fill="#2A2633"/>
<path d="M27.11 71.812H40.1583V154.431H27.11V71.812Z" fill="#2A2633"/>
<path d="M36.8627 75.8235H67.2679V87.0093H36.8627V75.8235Z" fill="#A5A5A5"/>
<path d="M96.2608 29.9141H100.61V53.1452H96.2608V29.9141Z" fill="#6A6572"/>
<path d="M20.335 25.0732H28.1128V56.1334H20.335V25.0732Z" fill="#6A6572"/>
<path d="M90.8165 25.0732H98.5944V56.1334H90.8165V25.0732Z" fill="#5A5663"/>
<path d="M17.7869 165.995H88.1457V190.772H17.7869V165.995Z" fill="white"/>
<path d="M35.3482 57.167H47.3732V64.6788H35.3482V57.167Z" fill="#D6AB8E"/>
<path d="M35.1949 36.8628H47.1073V57.7402H35.1949V36.8628Z" fill="#BFA08C"/>
<path d="M47.4142 53.4829H69.6936V64.2388H47.4142V53.4829Z" fill="#BFA08C"/>
<path d="M47.1272 18.8816H81.0632V58.0062H47.1272V18.8816Z" fill="#D6AB8E"/>
<path d="M64.5867 11.7896H65.037H81.1658V22.7092H65.037H64.5867H48.898V11.7896H64.5867Z" fill="#313131"/>
<path d="M35.3279 8.39185H47.4449V37.3643H35.3279V8.39185Z" fill="#313131"/>
<path d="M58.508 63.8807L69.6937 63.676L69.7245 75.7419V82.0972H35.5122V63.85H47.4143V75.527H58.4875L58.508 63.8807Z" fill="white"/>
<path d="M69.7241 84.2666H103.814V167.449C103.814 167.449 1.41217 166.763 0.798134 167.449C0.18409 168.134 0.798134 84.2666 0.798134 84.2666H69.7241Z" fill="white"/>
<path d="M49.3792 88.8513H57.4436V157.706H49.3792V88.8513Z" fill="#E2E2E2"/>
<path d="M92.4947 156.294H105.604V169.741H92.4947V156.294Z" fill="#6A6572"/>
<path d="M12.4346 161.656H92.4951V167.357H12.4346V161.656Z" fill="#6A6572"/>
<path d="M88.0227 190.547V282.53H63.195L63.0108 282.029C62.9187 281.742 62.407 281.865 62.4991 282.151C62.4991 282.274 62.5912 282.397 62.6424 282.53H62.2228V190.547H88.0227Z" fill="white"/>
<path d="M17.797 190.557H37.4974V282.53H17.797V190.557Z" fill="white"/>
<path d="M78.1777 167.367H88.5345V283.236H78.1777V167.367Z" fill="#E2E2E2"/>
<path d="M28.2356 190.608H42.4404V283.011H28.2356V190.608Z" fill="#E2E2E2"/>
<path d="M65.2623 48.4475H69.755V58.0572H65.2623V48.4475Z" fill="#313131"/>
<path d="M45.0295 75.8235H61.0355V86.6204H45.0295V75.8235Z" fill="#E2E2E2"/>
<path d="M47.4036 63.7883H59.5104V77.0618H47.4036V63.7883Z" fill="white"/>
<path d="M47.3527 11.9021H56.4507V49.8395H47.3527V11.9021Z" fill="#DDB99F"/>
<path d="M69.714 57.9448H80.8179V64.1262H69.714V57.9448Z" fill="#313131"/>
<path d="M62.1818 282.54H101.644V294.227H62.1818V282.54Z" fill="#6A6572"/>
<path d="M-2.38419e-05 155.946H12.6799V169.393H-2.38419e-05V155.946Z" fill="#6A6572"/>
<path d="M72.0881 30.3027H78.6481V48.3043H72.0881V30.3027Z" fill="#BFA08C"/>
<path d="M66.7259 20.7646H82.2611V25.329H66.7259V20.7646Z" fill="#313131"/>
<path d="M67.2066 25.7998H71.6277V30.2209H67.2066V25.7998Z" fill="#313131"/>
<path d="M78.9549 25.7998H81.0017V30.2209H78.9549V25.7998Z" fill="#313131"/>
<path d="M69.7549 42.2661H83.3559V48.4474H69.7549V42.2661Z" fill="#313131"/>
<path d="M25.2264 13.9182H95.1349V66.521H25.2264V13.9182Z" fill="#E2E2E2"/>
<path d="M62.2842 219.396H88.8312V223.746H62.2842V219.396Z" fill="#6A6572"/>
<path d="M17.6742 219.396H42.6042V223.746H17.6742V219.396Z" fill="#6A6572"/>
<path d="M62.2841 249.72H88.7083V288.292H62.2841V249.72Z" fill="#6A6572"/>
<path d="M78.0752 249.72H88.7083V282.898H78.0752V249.72Z" fill="#4D4954"/>
<path d="M73.3778 282.54H101.644V294.186H73.3778V282.54Z" fill="#4D4954"/>
<path d="M17.7762 249.945H42.4913V293.88H17.7762V249.945Z" fill="#6A6572"/>
<path d="M28.1842 249.945H42.4913V294.115H28.1842V249.945Z" fill="#4D4954"/>
<path d="M7.38874 282.54H42.2969V294.227H7.38874V282.54Z" fill="#4D4954"/>
<path d="M83.3357 185.645H88.5959V188.121H83.3357V185.645Z" fill="#6A6572"/>
<path d="M80.3575 167.305H83.3356V185.635H80.3575V167.305Z" fill="#6A6572"/>
<path d="M23.067 188.121H17.8068V185.644H23.067V188.121Z" fill="#6A6572"/>
<path d="M26.0452 185.645H23.0671L23.0671 167.182H26.0452L26.0452 185.645Z" fill="#6A6572"/>
<path d="M81.207 99.2903H92.4951V161.544H81.207V99.2903Z" fill="#E2E2E2"/>
<path d="M12.7002 99.2903H23.9883V161.861H12.7002V99.2903Z" fill="#E2E2E2"/>
<path d="M81.1964 161.656H92.5255V167.367H81.1964V161.656Z" fill="#5A5663"/>
<path d="M12.6898 161.656H24.0086V167.387H12.6898V161.656Z" fill="#5A5663"/>
<path d="M0.644637 100.396H10.8684V104.51H0.644637V100.396Z" fill="#FFBC00"/>
<path d="M31.6437 7.9519H89.2816V19.0865H31.6437V7.9519Z" fill="#E2E2E2"/>
<path d="M35.1744 4.13428H83.3356V12.0452H35.1744V4.13428Z" fill="#E2E2E2"/>
<path d="M40.9156 0H78.5358V8.70913H40.9156V0Z" fill="#E2E2E2"/>
<path d="M88.913 70.3281H31.6538V59.1935L88.913 59.1935V70.3281Z" fill="#E2E2E2"/>
<path d="M83.8672 74.1453H35.4809V66.2344H83.8672V74.1453Z" fill="#E2E2E2"/>
<path d="M78.4742 78.2695H40.0763V69.5604H78.4742V78.2695Z" fill="#E2E2E2"/>
<path d="M43.4021 78.2083H69.8468V82.1586H43.4021V78.2083Z" fill="#A5A5A5"/>
<path d="M69.8365 73.7053H78.5252V78.2799H69.8365V73.7053Z" fill="#A5A5A5"/>
<path d="M79.3542 67.1758H83.8776V74.1451H79.3542V67.1758Z" fill="#A5A5A5"/>
<path d="M83.7855 63.9521H89.2095V70.42H83.7855V63.9521Z" fill="#A5A5A5"/>
<path d="M89.1174 13.9182H95.1555V66.5312H89.1174V13.9182Z" fill="#A5A5A5"/>
<path d="M72.9681 69.9595H79.5281V74.1554H72.9681V69.9595Z" fill="#A5A5A5"/>
<path d="M84.0314 13.8977H89.5168V19.1477H84.0314V13.8977Z" fill="#A5A5A5"/>
<path d="M83.264 10.7761H89.2816V13.9691H83.264V10.7761Z" fill="#A5A5A5"/>
<path d="M78.9552 10.8069H84.7068V14.0511H78.9552V10.8069Z" fill="#A5A5A5"/>
<path d="M78.9654 7.7981H83.4888V10.8069H78.9654V7.7981Z" fill="#A5A5A5"/>
<path d="M29.7091 19.2091H35.2457V14.1228H38.2852V10.8787H43.2385V7.35815H75.6598V10.8787H79.8045V14.1228H84.9215V19.2091H89.9771V63.9931H84.6043V67.2271H80.2651V70.4712H75.5984V74.002H42.5118V70.4712H38.3875V67.2271H35.2457V63.9931H29.7091V19.2091Z" fill="#313131"/>
<path d="M35.2457 19.2091V14.1228H38.2852V10.8787H43.2385V7.35815H75.6598V10.8787H79.8045V14.1228H84.9215V19.2091H89.9771V35.1844H85.1774V31.9402H81.0429V28.4095H48.6215V31.9402H43.6683V35.1844H40.6186V40.2605H35.0922V63.9931H29.7091V19.2091H35.2457Z" fill="#1E1E1E"/>
<path d="M92.372 118.929H103.814V121.948H92.372V118.929Z" fill="#6A6572"/>
<path d="M0.471032 118.929H12.629V121.948H0.471032V118.929Z" fill="#6A6572"/>
<path d="M42.4915 78.198H47.7108V82.1893H42.4915V78.198Z" fill="#E2E2E2"/>
<path d="M75.6396 34.7239H81.5855V40.6698H75.6396V34.7239Z" fill="#1E1E1E"/>
<path d="M82.8853 41.9697H88.8312V47.9157H82.8853V41.9697Z" fill="#1E1E1E"/>
<path d="M42.8393 19.9971H48.335V25.4927H42.8393V19.9971Z" fill="#313131"/>
<path d="M12.629 125.796H92.4951V131.292H12.629V125.796Z" fill="#6A6572"/>
<path d="M81.1661 125.796H92.4951V131.292H81.1661V125.796Z" fill="#5A5663"/>
<path d="M12.6285 125.796H24.0701V131.292H12.6285V125.796Z" fill="#5A5663"/>
<path d="M24.7557 88.616H46.2675V94.5619H24.7557V88.616Z" fill="#6A6572"/>
<path d="M72.4669 129.235H74.8719V164.133H72.4669V129.235Z" fill="#6A6572"/>
<path d="M30.2412 129.235H32.6461V164.133H30.2412V129.235Z" fill="#6A6572"/>
<path d="M17.7765 29.9141H22.1259V53.1452H17.7765V29.9141Z" fill="#6A6572"/>
<path d="M6.21215 158.453H12.7005V161.584H6.21215V158.453Z" fill="#5A5663"/>
<path d="M92.5663 158.453H99.0547V161.584H92.5663V158.453Z" fill="#5A5663"/>
<path d="M59.9916 99.2595H65.0267V104.295H59.9916V99.2595Z" fill="#6A6572"/>
<path d="M68.2303 99.2595H73.2654V104.295H68.2303V99.2595Z" fill="#6A6572"/>
<path d="M6.44731 42.4302H11.0219V68.5166H6.44731V42.4302Z" fill="white"/>
</svg>
