<svg width="1728" height="426" viewBox="0 0 1728 426" fill="none" xmlns="http://www.w3.org/2000/svg">
<path d="M1799 49.1785C1773.84 50.1134 1746.96 49.7424 1731.77 50.3063C1654.8 53.1258 1597.84 59.9224 1529.89 74.1536C1421.94 96.7691 1310.26 100.524 1189.9 100.731C1003.51 101.058 817.017 97.4666 630.968 93.1483C496.119 90.032 362.41 86.7227 232.209 71.1856C179.38 64.8936 171.683 55.0401 133.819 42.0406C82.5879 24.4408 -5.94452 17.5404 -69.4315 10.6994C-99.8649 7.43465 -129.899 4.12541 -159 0V37.9746C-75.7816 41.8329 28.9889 36.0157 79.9383 63.291C95.0662 71.3786 95.9987 79.481 118.779 86.0846C148.798 94.7955 193.916 98.1789 229.071 101.918C283.84 107.75 358.399 100.345 401.636 116.966C427.732 126.983 443.082 142.49 470.97 151.349C533.939 171.323 650.877 178.654 727.582 181.845C829.807 186.104 921.062 177.986 1019.01 167.332C1098.16 158.725 1177.16 152.047 1257.16 144.953C1296.48 141.451 1359.74 138.187 1389.61 126.048C1405.7 119.503 1404.71 110.065 1421.13 104.085C1441.41 96.6653 1480.19 95.671 1505.32 93.3264C1543.54 89.75 1578.34 86.144 1615.14 81.0095C1645.07 76.6861 1675.29 74.8151 1705.52 75.4149C1734.34 76.0827 1767.69 79.6739 1799 79.763V49.1785Z" fill="url(#paint0_linear_114_185)"/>
<path d="M1799 212.271C1785.25 207.018 1773.54 199.633 1769.78 190.444C1780.81 186.833 1788.18 182.024 1799 178.309V139.42C1734.46 144.954 1672.49 144.57 1609.18 158.184C1506.76 180.218 1398.79 162.002 1293.54 174.861C1233.5 182.26 1179.46 191.272 1117.73 191.139C973.809 190.917 830.569 185.457 687.269 197.798C582.81 206.781 479.565 223.044 376.424 199.929C325.948 188.624 278.729 171.103 229.32 157.74C192.314 147.722 154.924 145.591 116.246 140.633C95.7155 138.014 74.4597 131.754 53.5886 131.607C28.8098 131.399 11.3136 136.875 -15.1822 132.894C-56.6283 126.664 -92.2719 102.587 -132.475 99.391C-141.045 98.6955 -149.926 98.2664 -159 98V140.915C-145.263 141.745 -131.596 143.48 -118.087 146.109C-96.224 150.548 -86.3214 160.907 -69.4913 166.826C-38.8065 177.584 22.282 172.553 55.2612 175.601C112.797 180.929 169.504 188.032 225.205 200.003C245.217 204.31 299.319 210.673 311.176 224.938C320.057 235.563 310.273 244.768 325.282 256.887C356.811 282.34 425.019 286.38 467.635 292.403C545.02 303.353 670.424 330.33 741.948 300.186C770.768 288.037 775.742 275.548 756.055 257.79C748.313 250.805 737.197 249.266 736.072 238.715C758.586 234.276 776.348 223.103 800.772 220.957C900.553 212.389 1007.37 250.642 1107.59 232.47C1107.12 230.177 1108.61 226.374 1108.32 223.887C1160.51 214.165 1230.75 211.738 1282.63 223.887C1379.09 246.588 1481.55 269.066 1584.59 255.289C1616.58 251.012 1618.72 238.271 1642.56 229.008C1662.98 221.061 1685.48 222.763 1705.18 228.652C1737.16 238.212 1767.84 250.139 1798.91 261.297L1799 212.271Z" fill="url(#paint1_linear_114_185)"/>
<path d="M1799 364.915C1782.72 364.076 1766.32 362.928 1749.78 361.382C1683.96 355.186 1615.65 341.011 1548.85 338.42C1504.19 336.683 1419.67 340.231 1381.9 350.961C1351.4 359.616 1356.48 368.433 1315.45 371.171C1274.12 373.923 1227.66 368.094 1185.92 367.918C1145.42 367.726 1104.92 368.404 1064.44 367.918C985.338 366.917 914.451 367.918 836.489 374.335C786.163 378.457 735.969 386.332 685.021 387.171C587.121 388.79 499.879 366.107 406.641 356.393C249.015 339.995 63.9171 340.819 -95.7957 347.561C-118.842 348.532 -139.328 349.106 -159 350.313V363.796C-80.9494 367.329 -2.35114 369.095 75.9659 370.773C198.2 373.393 315.757 382.549 435.919 391.616C519.906 397.96 599.584 413.887 685.776 415.27C798.715 417.051 902.935 394.781 1015.9 396.253C1073.72 397.062 1123.75 391.837 1180.07 387.774C1250.04 382.74 1317.08 403.171 1385.45 399.447C1442.18 396.37 1429.62 377.176 1463.08 366.74C1491.62 357.835 1568.65 370.273 1595.01 375.866C1638.96 385.184 1607.43 383.226 1617.72 396.576C1628.64 410.81 1669.28 420.967 1698.75 423.852C1729.83 426.898 1772.76 427.134 1799 421.732V364.915Z" fill="url(#paint2_linear_114_185)"/>
<defs>
<linearGradient id="paint0_linear_114_185" x1="819.993" y1="1170.92" x2="819.993" y2="132.325" gradientUnits="userSpaceOnUse">
<stop stop-color="#FFFFE6"/>
<stop offset="0.04" stop-color="#FFF2E4"/>
<stop offset="0.19" stop-color="#FFBDDE"/>
<stop offset="0.31" stop-color="#FF9CDA"/>
<stop offset="0.37" stop-color="#FF90D8"/>
<stop offset="0.41" stop-color="#F789D5"/>
<stop offset="0.69" stop-color="#BE5AC3"/>
<stop offset="0.89" stop-color="#9B3DB7"/>
<stop offset="1" stop-color="#8E32B3"/>
</linearGradient>
<linearGradient id="paint1_linear_114_185" x1="820" y1="1167.67" x2="820" y2="131.977" gradientUnits="userSpaceOnUse">
<stop stop-color="#FFFFE6"/>
<stop offset="0.04" stop-color="#FFF2E4"/>
<stop offset="0.19" stop-color="#FFBDDE"/>
<stop offset="0.31" stop-color="#FF9CDA"/>
<stop offset="0.37" stop-color="#FF90D8"/>
<stop offset="0.41" stop-color="#F789D5"/>
<stop offset="0.69" stop-color="#BE5AC3"/>
<stop offset="0.89" stop-color="#9B3DB7"/>
<stop offset="1" stop-color="#8E32B3"/>
</linearGradient>
<linearGradient id="paint2_linear_114_185" x1="820.015" y1="1163.81" x2="820.015" y2="133.629" gradientUnits="userSpaceOnUse">
<stop stop-color="#FFFFE6"/>
<stop offset="0.04" stop-color="#FFF2E4"/>
<stop offset="0.19" stop-color="#FFBDDE"/>
<stop offset="0.31" stop-color="#FF9CDA"/>
<stop offset="0.37" stop-color="#FF90D8"/>
<stop offset="0.41" stop-color="#F789D5"/>
<stop offset="0.69" stop-color="#BE5AC3"/>
<stop offset="0.89" stop-color="#9B3DB7"/>
<stop offset="1" stop-color="#8E32B3"/>
</linearGradient>
</defs>
</svg>
