<svg width="361" height="235" viewBox="0 0 361 235" fill="none" xmlns="http://www.w3.org/2000/svg">
<g filter="url(#filter0_d_207_8)">
<path fill-rule="evenodd" clip-rule="evenodd" d="M41.7699 54.7522V69.177H36V165.823H43.2125V180.248H54.7523V187.46H69.1771V199H292.761V191.788H305.744V180.248H315.841V164.381H324.496V69.177H317.284V54.7522H305.744V47.5398H291.319V36H67.7346V47.5398H53.3097V54.7522H41.7699ZM36 199V184.575H36.0001V199H36Z" fill="#402F5C"/>
<path d="M130.029 121.699H126.029V117.699H110.029V109.699H118.029V113.699H126.029V109.699H122.029V105.699H106.029V109.699H102.029V117.699H106.029V121.699H122.029V129.699H110.029V125.699H102.029V129.699H106.029V133.699H126.029V129.699H130.029V121.699ZM157.17 105.699H133.17V109.699H141.17V133.699H149.17V109.699H157.17V105.699ZM190.302 113.699H186.302V109.699H182.302V105.699H170.302V109.699H166.302V113.699H162.302V133.699H170.302V125.699H182.302V133.699H190.302V113.699ZM170.302 121.699V113.699H174.302V109.699H178.302V113.699H182.302V121.699H170.302ZM223.427 129.699H219.427V125.699H215.427V121.699H223.427V109.699H219.427V105.699H195.427V133.699H203.427V125.699H207.427V129.699H211.427V133.699H223.427V129.699ZM211.427 117.699V121.699H203.427V109.699H215.427V117.699H211.427ZM254.552 105.699H230.552V109.699H238.552V133.699H246.552V109.699H254.552V105.699Z" fill="white"/>
<mask id="mask0_207_8" style="mask-type:alpha" maskUnits="userSpaceOnUse" x="102" y="105" width="153" height="29">
<path d="M130.029 121.699H126.029V117.699H110.029V109.699H118.029V113.699H126.029V109.699H122.029V105.699H106.029V109.699H102.029V117.699H106.029V121.699H122.029V129.699H110.029V125.699H102.029V129.699H106.029V133.699H126.029V129.699H130.029V121.699ZM157.17 105.699H133.17V109.699H141.17V133.699H149.17V109.699H157.17V105.699ZM190.302 113.699H186.302V109.699H182.302V105.699H170.302V109.699H166.302V113.699H162.302V133.699H170.302V125.699H182.302V133.699H190.302V113.699ZM170.302 121.699V113.699H174.302V109.699H178.302V113.699H182.302V121.699H170.302ZM223.427 129.699H219.427V125.699H215.427V121.699H223.427V109.699H219.427V105.699H195.427V133.699H203.427V125.699H207.427V129.699H211.427V133.699H223.427V129.699ZM211.427 117.699V121.699H203.427V109.699H215.427V117.699H211.427ZM254.552 105.699H230.552V109.699H238.552V133.699H246.552V109.699H254.552V105.699Z" fill="white"/>
</mask>
<g mask="url(#mask0_207_8)">
<rect x="92.2567" y="119.664" width="174.54" height="14.4248" fill="#EB9BD5"/>
</g>
</g>
<defs>
<filter id="filter0_d_207_8" x="0" y="0" width="360.496" height="235" filterUnits="userSpaceOnUse" color-interpolation-filters="sRGB">
<feFlood flood-opacity="0" result="BackgroundImageFix"/>
<feColorMatrix in="SourceAlpha" type="matrix" values="0 0 0 0 0 0 0 0 0 0 0 0 0 0 0 0 0 0 127 0" result="hardAlpha"/>
<feOffset/>
<feGaussianBlur stdDeviation="18"/>
<feComposite in2="hardAlpha" operator="out"/>
<feColorMatrix type="matrix" values="0 0 0 0 1 0 0 0 0 1 0 0 0 0 1 0 0 0 1 0"/>
<feBlend mode="normal" in2="BackgroundImageFix" result="effect1_dropShadow_207_8"/>
<feBlend mode="normal" in="SourceGraphic" in2="effect1_dropShadow_207_8" result="shape"/>
</filter>
</defs>
</svg>
