<svg width="117" height="126" viewBox="0 0 117 126" fill="none" xmlns="http://www.w3.org/2000/svg">
<path fill-rule="evenodd" clip-rule="evenodd" d="M7.02007 14.4956V8.92028H12.8699V0H103.545V8.92028H109.395V14.4956H114.075V25.6461H117V99.239H113.49V111.504H109.395V120.425H104.13V126H13.4551V117.08H7.605V111.504H2.92507V100.354H0L2.36499e-05 25.6461H2.34014V14.4956H7.02007ZM111.735 126H117V113.735H117V126H111.735V126ZM2.36499e-05 2.0652e-05H5.26492V0H2.36499e-05V2.0652e-05Z" fill="white"/>
<path fill-rule="evenodd" clip-rule="evenodd" d="M6.83825 1.08618V1.08622H1.70972V1.08618H6.83825ZM8.54809 15.2069V9.77585H14.2466V1.08618H102.577V9.77585H108.275V15.2069H112.835V26.069H115.684V97.7586H112.265V109.707H108.276V118.396H103.147V123.828H14.8167V115.138H9.11792V109.707H4.55908V98.8447H1.70972V26.069H3.98876V15.2069H8.54809ZM115.684 123.828V111.879H115.684V123.828H115.684ZM115.684 11.9483H115.684V1.08622L109.985 1.08618H115.684V11.9483Z" fill="#402F5C"/>
<path d="M87.5722 74.8621H79.5722V66.8621H71.5721V58.8621H79.5722V50.8621H87.5722V34.8621H71.5721V42.8621H63.5721V50.8621H55.5722V42.8621H47.5721V34.8621H31.5721V50.8621H39.5721V58.8621H47.5721V66.8621H39.5721V74.8621H31.5721V90.8621H47.5721V82.8621H55.5722V74.8621H63.5721V82.8621H71.5721V90.8621H87.5722V74.8621Z" fill="white"/>
<path d="M87.5722 74.8621H88.5722V73.8621H87.5722V74.8621ZM79.5722 74.8621H78.5722V75.8621H79.5722V74.8621ZM79.5722 66.8621H80.5722V65.8621H79.5722V66.8621ZM71.5722 66.8621H70.5722V67.8621H71.5722V66.8621ZM71.5722 58.8621V57.8621H70.5722V58.8621H71.5722ZM79.5722 58.8621V59.8621H80.5722V58.8621H79.5722ZM79.5722 50.8621V49.8621H78.5722V50.8621H79.5722ZM87.5722 50.8621V51.8621H88.5722V50.8621H87.5722ZM87.5722 34.8621H88.5722V33.8621H87.5722V34.8621ZM71.5722 34.8621V33.8621H70.5722V34.8621H71.5722ZM71.5722 42.8621V43.8621H72.5722V42.8621H71.5722ZM63.5722 42.8621V41.8621H62.5722V42.8621H63.5722ZM63.5722 50.8621V51.8621H64.5722V50.8621H63.5722ZM55.5722 50.8621H54.5722V51.8621H55.5722V50.8621ZM55.5722 42.8621H56.5722V41.8621H55.5722V42.8621ZM47.5721 42.8621H46.5721V43.8621H47.5721V42.8621ZM47.5721 34.8621H48.5721V33.8621H47.5721V34.8621ZM31.5721 34.8621V33.8621H30.5721V34.8621H31.5721ZM31.5721 50.8621H30.5721V51.8621H31.5721V50.8621ZM39.5721 50.8621H40.5721V49.8621H39.5721V50.8621ZM39.5721 58.8621H38.5721V59.8621H39.5721V58.8621ZM47.5721 58.8621H48.5721V57.8621H47.5721V58.8621ZM47.5721 66.8621V67.8621H48.5721V66.8621H47.5721ZM39.5721 66.8621V65.8621H38.5721V66.8621H39.5721ZM39.5721 74.8621V75.8621H40.5721V74.8621H39.5721ZM31.5721 74.8621V73.8621H30.5721V74.8621H31.5721ZM31.5721 90.8621H30.5721V91.8621H31.5721V90.8621ZM47.5721 90.8621V91.8621H48.5721V90.8621H47.5721ZM47.5721 82.8621V81.8621H46.5721V82.8621H47.5721ZM55.5722 82.8621V83.8621H56.5722V82.8621H55.5722ZM55.5722 74.8621V73.8621H54.5722V74.8621H55.5722ZM63.5722 74.8621H64.5722V73.8621H63.5722V74.8621ZM63.5722 82.8621H62.5722V83.8621H63.5722V82.8621ZM71.5722 82.8621H72.5722V81.8621H71.5722V82.8621ZM71.5722 90.8621H70.5722V91.8621H71.5722V90.8621ZM87.5722 90.8621V91.8621H88.5722V90.8621H87.5722ZM87.5722 73.8621H79.5722V75.8621H87.5722V73.8621ZM80.5722 74.8621V66.8621H78.5722V74.8621H80.5722ZM79.5722 65.8621H71.5722V67.8621H79.5722V65.8621ZM72.5722 66.8621V58.8621H70.5722V66.8621H72.5722ZM71.5722 59.8621H79.5722V57.8621H71.5722V59.8621ZM80.5722 58.8621V50.8621H78.5722V58.8621H80.5722ZM79.5722 51.8621H87.5722V49.8621H79.5722V51.8621ZM88.5722 50.8621V34.8621H86.5722V50.8621H88.5722ZM87.5722 33.8621H71.5722V35.8621H87.5722V33.8621ZM70.5722 34.8621V42.8621H72.5722V34.8621H70.5722ZM71.5722 41.8621H63.5722V43.8621H71.5722V41.8621ZM62.5722 42.8621V50.8621H64.5722V42.8621H62.5722ZM63.5722 49.8621H55.5722V51.8621H63.5722V49.8621ZM56.5722 50.8621V42.8621H54.5722V50.8621H56.5722ZM55.5722 41.8621H47.5721V43.8621H55.5722V41.8621ZM48.5721 42.8621V34.8621H46.5721V42.8621H48.5721ZM47.5721 33.8621H31.5721V35.8621H47.5721V33.8621ZM30.5721 34.8621V50.8621H32.5721V34.8621H30.5721ZM31.5721 51.8621H39.5721V49.8621H31.5721V51.8621ZM38.5721 50.8621V58.8621H40.5721V50.8621H38.5721ZM39.5721 59.8621H47.5721V57.8621H39.5721V59.8621ZM46.5721 58.8621V66.8621H48.5721V58.8621H46.5721ZM47.5721 65.8621H39.5721V67.8621H47.5721V65.8621ZM38.5721 66.8621V74.8621H40.5721V66.8621H38.5721ZM39.5721 73.8621H31.5721V75.8621H39.5721V73.8621ZM30.5721 74.8621V90.8621H32.5721V74.8621H30.5721ZM31.5721 91.8621H47.5721V89.8621H31.5721V91.8621ZM48.5721 90.8621V82.8621H46.5721V90.8621H48.5721ZM47.5721 83.8621H55.5722V81.8621H47.5721V83.8621ZM56.5722 82.8621V74.8621H54.5722V82.8621H56.5722ZM55.5722 75.8621H63.5722V73.8621H55.5722V75.8621ZM62.5722 74.8621V82.8621H64.5722V74.8621H62.5722ZM63.5722 83.8621H71.5722V81.8621H63.5722V83.8621ZM70.5722 82.8621V90.8621H72.5722V82.8621H70.5722ZM71.5722 91.8621H87.5722V89.8621H71.5722V91.8621ZM88.5722 90.8621V74.8621H86.5722V90.8621H88.5722Z" fill="black"/>
</svg>
