<?xml version="1.0" encoding="UTF-8"?>
<svg version="1.1" viewBox="0 0 234 333" xmlns="http://www.w3.org/2000/svg" xmlns:cc="http://creativecommons.org/ns#" xmlns:dc="http://purl.org/dc/elements/1.1/" xmlns:rdf="http://www.w3.org/1999/02/22-rdf-syntax-ns#">
<g transform="translate(0 -719.36)">
<g>
<rect x=".37795" y="719.74" width="233.24" height="332.24" rx="8.9192" ry="8.9457" fill="#fff" stroke="#808080" stroke-width=".756"/>
<g transform="matrix(.056487 0 0 .056673 -21.36 766.91)" stroke-width="3.1813">
<rect x="2406.7" y="536.55" width="85.256" height="295.69"/>
<path d="m2917.9 395.13c67.135 120.8 23.601 273.14-97.235 340.26-120.84 67.117-273.22 23.595-340.35-97.21-17.88-32.173-28.44-67.893-30.889-104.57-9.342 137.92-128.75 242.09-266.66 232.71-137.91-9.3777-242.11-128.75-232.73-266.63s128.79-242.05 266.7-232.67c36.206 2.4619 71.443 12.765 103.73 30.222-118.19-70.886-156.88-224.53-85.945-343.15 70.93-118.62 224.61-157.29 343.26-86.378 118.65 70.912 157.33 224.55 86.4 343.17-21.341 35.69-51.243 65.5-86.812 86.883 121.02-66.97 273.4-23.448 340.54 97.356z"/>
</g>
<g transform="matrix(.018829 0 0 .018891 -28.915 764.98)" stroke-width="3.1813">
<rect x="2406.7" y="536.55" width="85.256" height="295.69"/>
<path d="m2917.9 395.13c67.135 120.8 23.601 273.14-97.235 340.26-120.84 67.117-273.22 23.595-340.35-97.21-17.88-32.173-28.44-67.893-30.889-104.57-9.342 137.92-128.75 242.09-266.66 232.71-137.91-9.3777-242.11-128.75-232.73-266.63s128.79-242.05 266.7-232.67c36.206 2.4619 71.443 12.765 103.73 30.222-118.19-70.886-156.88-224.53-85.945-343.15 70.93-118.62 224.61-157.29 343.26-86.378 118.65 70.912 157.33 224.55 86.4 343.17-21.341 35.69-51.243 65.5-86.812 86.883 121.02-66.97 273.4-23.448 340.54 97.356z"/>
</g>
<g transform="matrix(.018829 0 0 -.018891 171.24 1006.7)" stroke-width="3.1813">
<rect x="2406.7" y="536.55" width="85.256" height="295.69"/>
<path d="m2917.9 395.13c67.135 120.8 23.601 273.14-97.235 340.26-120.84 67.117-273.22 23.595-340.35-97.21-17.88-32.173-28.44-67.893-30.889-104.57-9.342 137.92-128.75 242.09-266.66 232.71-137.91-9.3777-242.11-128.75-232.73-266.63s128.79-242.05 266.7-232.67c36.206 2.4619 71.443 12.765 103.73 30.222-118.19-70.886-156.88-224.53-85.945-343.15 70.93-118.62 224.61-157.29 343.26-86.378 118.65 70.912 157.33 224.55 86.4 343.17-21.341 35.69-51.243 65.5-86.812 86.883 121.02-66.97 273.4-23.448 340.54 97.356z"/>
</g>
<g transform="matrix(.056487 0 0 -.056673 -21.36 1004.8)" stroke-width="3.1813">
<rect x="2406.7" y="536.55" width="85.256" height="295.69"/>
<path d="m2917.9 395.13c67.135 120.8 23.601 273.14-97.235 340.26-120.84 67.117-273.22 23.595-340.35-97.21-17.88-32.173-28.44-67.893-30.889-104.57-9.342 137.92-128.75 242.09-266.66 232.71-137.91-9.3777-242.11-128.75-232.73-266.63s128.79-242.05 266.7-232.67c36.206 2.4619 71.443 12.765 103.73 30.222-118.19-70.886-156.88-224.53-85.945-343.15 70.93-118.62 224.61-157.29 343.26-86.378 118.65 70.912 157.33 224.55 86.4 343.17-21.341 35.69-51.243 65.5-86.812 86.883 121.02-66.97 273.4-23.448 340.54 97.356z"/>
</g>
<g transform="scale(.98105 1.0193)" aria-label="2">
<path d="m27 735.55-0.71084 5.6483h-18.347q0.42266-4.8606 3.9192-8.5877l6.2247-5.3025q3.2468-2.8049 3.2468-5.6291 0-1.8828-1.0759-2.9971-1.0567-1.1335-2.9202-1.1335-2.1517 0-3.2084 1.1527-0.69163 0.76848-1.0567 2.3631-0.36503 1.6906-0.57636 1.9596-0.30739 0.0961-0.71084 0.0961h-2.4207q-0.42266 0-0.73005-0.17291-0.13448-0.40345-0.13448-0.90296 0-4.0153 2.632-6.3784 2.5168-2.267 6.5513-2.267 3.7463 0 6.1286 1.998 2.536 2.1133 2.536 5.802 0 3.6311-2.8049 6.6473-0.97981 1.0759-5.5715 4.5916-3.3429 2.5936-4.1114 4.6685h8.9528l0.1537-1.7291q0.21133-0.92217 1.1335-0.92217h1.9212q1.1143 0 0.97981 1.0951z"/>
</g>
<g transform="scale(-.98105 -1.0193)" aria-label="2">
<path d="m-211.52-1002.6-0.71085 5.6483h-18.347q0.42266-4.8606 3.9192-8.5878l6.2247-5.3025q3.2468-2.8049 3.2468-5.6291 0-1.8827-1.0759-2.997-1.0567-1.1335-2.9202-1.1335-2.1517 0-3.2084 1.1527-0.69163 0.7685-1.0567 2.3631-0.36503 1.6906-0.57636 1.9596-0.30739 0.096-0.71084 0.096h-2.4207q-0.42266 0-0.73005-0.1729-0.13449-0.4034-0.13449-0.9029 0-4.0153 2.632-6.3784 2.5168-2.267 6.5513-2.267 3.7463 0 6.1286 1.998 2.536 2.1134 2.536 5.802 0 3.6311-2.805 6.6474-0.97981 1.0759-5.5715 4.5916-3.3429 2.5937-4.1114 4.6685h8.9528l0.1537-1.729q0.21133-0.9222 1.1335-0.9222h1.9212q1.1143 0 0.97981 1.0951z"/>
</g>
</g>
</g>
</svg>
