<svg width="1728" height="1117" viewBox="0 0 1728 1117" fill="none" xmlns="http://www.w3.org/2000/svg">
<g clip-path="url(#clip0_319_2)">
<rect width="1728" height="1117" fill="black"/>
<g opacity="0.1">
<path d="M1779 89.1785C1753.84 90.1134 1726.96 89.7424 1711.77 90.3063C1634.8 93.1258 1577.84 99.9224 1509.89 114.154C1401.94 136.769 1290.26 140.524 1169.9 140.731C983.511 141.058 797.017 137.467 610.968 133.148C476.119 130.032 342.41 126.723 212.209 111.186C159.38 104.894 151.683 95.0401 113.819 82.0406C62.5879 64.4408 -25.9445 57.5404 -89.4315 50.6994C-119.865 47.4346 -149.899 44.1254 -179 40V77.9746C-95.7816 81.8329 8.98887 76.0157 59.9383 103.291C75.0662 111.379 75.9987 119.481 98.7794 126.085C128.798 134.795 173.916 138.179 209.071 141.918C263.84 147.75 338.399 140.345 381.636 156.966C407.732 166.983 423.082 182.49 450.97 191.349C513.939 211.323 630.877 218.654 707.582 221.845C809.807 226.104 901.063 217.986 999.009 207.332C1078.16 198.725 1157.16 192.047 1237.16 184.953C1276.48 181.451 1339.74 178.187 1369.61 166.048C1385.7 159.503 1384.71 150.065 1401.13 144.085C1421.41 136.665 1460.19 135.671 1485.32 133.326C1523.54 129.75 1558.34 126.144 1595.14 121.009C1625.07 116.686 1655.29 114.815 1685.52 115.415C1714.34 116.083 1747.69 119.674 1779 119.763V89.1785Z" fill="url(#paint0_linear_319_2)"/>
<path d="M1779 860.271C1765.25 855.018 1753.54 847.633 1749.78 838.444C1760.81 834.833 1768.18 830.024 1779 826.309V787.42C1714.46 792.954 1652.49 792.57 1589.18 806.184C1486.76 828.218 1378.79 810.002 1273.54 822.861C1213.5 830.26 1159.46 839.272 1097.73 839.139C953.809 838.917 810.569 833.457 667.269 845.798C562.81 854.781 459.565 871.044 356.424 847.929C305.948 836.624 258.729 819.103 209.32 805.74C172.314 795.722 134.924 793.591 96.2461 788.633C75.7155 786.014 54.4597 779.754 33.5886 779.607C8.80981 779.399 -8.68635 784.875 -35.1822 780.894C-76.6283 774.664 -112.272 750.587 -152.475 747.391C-161.045 746.696 -169.926 746.266 -179 746V788.915C-165.263 789.745 -151.596 791.48 -138.087 794.109C-116.224 798.548 -106.321 808.907 -89.4913 814.826C-58.8065 825.584 2.28204 820.553 35.2613 823.601C92.7972 828.929 149.504 836.032 205.205 848.003C225.217 852.31 279.319 858.673 291.176 872.938C300.057 883.563 290.273 892.768 305.282 904.887C336.811 930.34 405.019 934.38 447.635 940.403C525.02 951.353 650.424 978.33 721.948 948.186C750.768 936.037 755.742 923.548 736.055 905.79C728.313 898.805 717.197 897.266 716.072 886.715C738.586 882.276 756.348 871.103 780.772 868.957C880.553 860.389 987.366 898.642 1087.59 880.47C1087.12 878.177 1088.61 874.374 1088.32 871.887C1140.51 862.165 1210.75 859.738 1262.63 871.887C1359.09 894.588 1461.55 917.066 1564.59 903.289C1596.58 899.012 1598.72 886.271 1622.56 877.008C1642.98 869.061 1665.48 870.763 1685.18 876.652C1717.16 886.212 1747.84 898.139 1778.91 909.297L1779 860.271Z" fill="url(#paint1_linear_319_2)"/>
<path d="M1779 449.915C1762.72 449.076 1746.32 447.928 1729.78 446.382C1663.96 440.186 1595.65 426.011 1528.85 423.42C1484.19 421.683 1399.67 425.231 1361.9 435.961C1331.4 444.616 1336.48 453.433 1295.45 456.171C1254.12 458.923 1207.66 453.094 1165.92 452.918C1125.42 452.726 1084.92 453.404 1044.44 452.918C965.338 451.917 894.451 452.918 816.489 459.335C766.163 463.457 715.969 471.332 665.021 472.171C567.121 473.79 479.879 451.107 386.641 441.393C229.015 424.995 43.9171 425.819 -115.796 432.561C-138.842 433.532 -159.328 434.106 -179 435.313V448.796C-100.949 452.329 -22.3511 454.095 55.9659 455.773C178.2 458.393 295.757 467.549 415.919 476.616C499.906 482.96 579.584 498.887 665.776 500.27C778.715 502.051 882.935 479.781 995.904 481.253C1053.72 482.062 1103.75 476.837 1160.07 472.774C1230.04 467.74 1297.08 488.171 1365.45 484.447C1422.18 481.37 1409.62 462.176 1443.09 451.74C1471.62 442.835 1548.65 455.273 1575.01 460.866C1618.96 470.184 1587.43 468.226 1597.72 481.576C1608.64 495.81 1649.28 505.967 1678.75 508.852C1709.83 511.898 1752.76 512.134 1779 506.732V449.915Z" fill="url(#paint2_linear_319_2)"/>
</g>
<circle cx="101" cy="203" r="3" fill="#9767BB"/>
<circle cx="335" cy="318" r="3" fill="#9767BB"/>
<circle cx="203" cy="542" r="3" fill="#9767BB"/>
<circle cx="86" cy="551" r="3" fill="#9767BB"/>
<circle cx="418" cy="688" r="3" fill="#9767BB"/>
<circle cx="738" cy="736" r="3" fill="#9767BB"/>
<circle cx="606" cy="851" r="3" fill="#9767BB"/>
<circle cx="694" cy="312" r="3" fill="#9767BB"/>
<circle cx="606" cy="55" r="3" fill="#9767BB"/>
<circle cx="954" cy="99" r="3" fill="#9767BB"/>
<circle cx="1131" cy="280" r="3" fill="#9767BB"/>
<circle cx="983" cy="420" r="3" fill="#9767BB"/>
<circle cx="861" cy="585" r="3" fill="#9767BB"/>
<circle cx="1009" cy="998" r="3" fill="#9767BB"/>
<circle cx="141" cy="1027" r="3" fill="#9767BB"/>
<circle cx="1497" cy="240" r="3" fill="#9767BB"/>
<circle cx="1378" cy="383" r="3" fill="#9767BB"/>
<circle cx="1674" cy="711" r="3" fill="#9767BB"/>
<circle cx="1538" cy="1020" r="3" fill="#9767BB"/>
<circle cx="1231" cy="694" r="3" fill="#9767BB"/>
<circle cx="1578.5" cy="839.5" r="1.5" transform="rotate(180 1578.5 839.5)" fill="white"/>
<circle cx="1344.5" cy="724.5" r="1.5" transform="rotate(180 1344.5 724.5)" fill="white"/>
<circle cx="1476.5" cy="500.5" r="1.5" transform="rotate(180 1476.5 500.5)" fill="white"/>
<circle cx="1593.5" cy="491.5" r="1.5" transform="rotate(180 1593.5 491.5)" fill="white"/>
<circle cx="1261.5" cy="354.5" r="1.5" transform="rotate(180 1261.5 354.5)" fill="white"/>
<circle cx="941.5" cy="306.5" r="1.5" transform="rotate(180 941.5 306.5)" fill="white"/>
<circle cx="1073.5" cy="191.5" r="1.5" transform="rotate(180 1073.5 191.5)" fill="white"/>
<circle cx="985.5" cy="730.5" r="1.5" transform="rotate(180 985.5 730.5)" fill="white"/>
<circle cx="1073.5" cy="987.5" r="1.5" transform="rotate(180 1073.5 987.5)" fill="white"/>
<circle cx="725.5" cy="943.5" r="1.5" transform="rotate(180 725.5 943.5)" fill="white"/>
<circle cx="548.5" cy="762.5" r="1.5" transform="rotate(180 548.5 762.5)" fill="white"/>
<circle cx="696.5" cy="622.5" r="1.5" transform="rotate(180 696.5 622.5)" fill="white"/>
<circle cx="818.5" cy="457.5" r="1.5" transform="rotate(180 818.5 457.5)" fill="white"/>
<circle cx="670.5" cy="44.5" r="1.5" transform="rotate(180 670.5 44.5)" fill="white"/>
<circle cx="1538.5" cy="15.5" r="1.5" transform="rotate(180 1538.5 15.5)" fill="white"/>
<circle cx="182.5" cy="802.5" r="1.5" transform="rotate(180 182.5 802.5)" fill="white"/>
<circle cx="301.5" cy="659.5" r="1.5" transform="rotate(180 301.5 659.5)" fill="white"/>
<circle cx="5.5" cy="331.5" r="1.5" transform="rotate(180 5.5 331.5)" fill="white"/>
<circle cx="141.5" cy="22.5" r="1.5" transform="rotate(180 141.5 22.5)" fill="white"/>
<circle cx="448.5" cy="348.5" r="1.5" transform="rotate(180 448.5 348.5)" fill="white"/>
</g>
<defs>
<linearGradient id="paint0_linear_319_2" x1="799.993" y1="1210.92" x2="799.993" y2="172.325" gradientUnits="userSpaceOnUse">
<stop stop-color="#FFFFE6"/>
<stop offset="0.04" stop-color="#FFF2E4"/>
<stop offset="0.19" stop-color="#FFBDDE"/>
<stop offset="0.31" stop-color="#FF9CDA"/>
<stop offset="0.37" stop-color="#FF90D8"/>
<stop offset="0.41" stop-color="#F789D5"/>
<stop offset="0.69" stop-color="#BE5AC3"/>
<stop offset="0.89" stop-color="#9B3DB7"/>
<stop offset="1" stop-color="#8E32B3"/>
</linearGradient>
<linearGradient id="paint1_linear_319_2" x1="800" y1="1815.67" x2="800" y2="779.977" gradientUnits="userSpaceOnUse">
<stop stop-color="#FFFFE6"/>
<stop offset="0.04" stop-color="#FFF2E4"/>
<stop offset="0.19" stop-color="#FFBDDE"/>
<stop offset="0.31" stop-color="#FF9CDA"/>
<stop offset="0.37" stop-color="#FF90D8"/>
<stop offset="0.41" stop-color="#F789D5"/>
<stop offset="0.69" stop-color="#BE5AC3"/>
<stop offset="0.89" stop-color="#9B3DB7"/>
<stop offset="1" stop-color="#8E32B3"/>
</linearGradient>
<linearGradient id="paint2_linear_319_2" x1="800.015" y1="1248.81" x2="800.015" y2="218.629" gradientUnits="userSpaceOnUse">
<stop stop-color="#FFFFE6"/>
<stop offset="0.04" stop-color="#FFF2E4"/>
<stop offset="0.19" stop-color="#FFBDDE"/>
<stop offset="0.31" stop-color="#FF9CDA"/>
<stop offset="0.37" stop-color="#FF90D8"/>
<stop offset="0.41" stop-color="#F789D5"/>
<stop offset="0.69" stop-color="#BE5AC3"/>
<stop offset="0.89" stop-color="#9B3DB7"/>
<stop offset="1" stop-color="#8E32B3"/>
</linearGradient>
<clipPath id="clip0_319_2">
<rect width="1728" height="1117" fill="white"/>
</clipPath>
</defs>
</svg>
