<svg width="94" height="90" viewBox="0 0 94 90" fill="none" xmlns="http://www.w3.org/2000/svg">
<path d="M53.5178 85.7087C53.5201 87.1399 53.5201 88.5688 53.5225 90C49.0599 90 44.595 90 40.1325 90C40.1348 88.5688 40.1348 87.1399 40.1372 85.7087L40.1254 85.72C40.2453 85.7087 40.3651 85.6907 40.485 85.6907C44.7125 85.6884 48.9424 85.6884 53.17 85.6907C53.2898 85.6907 53.4097 85.711 53.5295 85.72L53.5178 85.7087Z" fill="black"/>
<path d="M93.69 51.4121C92.2002 51.4099 90.7126 51.4099 89.2228 51.4076L89.2345 51.4189C89.2228 51.3038 89.204 51.1886 89.204 51.0735C89.2016 47.0125 89.2016 42.9492 89.204 38.8881C89.204 38.773 89.2251 38.6579 89.2345 38.5427L89.2228 38.554C90.7126 38.5518 92.2002 38.5518 93.69 38.5495C93.69 42.8385 93.69 47.1253 93.69 51.4121Z" fill="black"/>
<path d="M66.9148 12.8288C66.9148 11.4202 66.9148 10.0138 66.9148 8.57361C71.3726 8.57361 75.7999 8.57361 80.2954 8.57361C80.2954 9.99125 80.2954 11.4089 80.2954 12.8288L80.3071 12.8175C80.1873 12.8288 80.0674 12.8469 79.9476 12.8469C75.72 12.8491 71.4901 12.8491 67.2626 12.8469C67.1427 12.8469 67.0229 12.8265 66.903 12.8175C66.9054 12.8198 66.9148 12.8288 66.9148 12.8288Z" fill="black"/>
<path d="M13.3571 25.6846C11.8907 25.6846 10.4267 25.6846 8.92743 25.6846C8.92743 21.4023 8.92743 17.1494 8.92743 12.831C10.4032 12.831 11.879 12.831 13.3571 12.831L13.3453 12.8197C13.3571 12.9348 13.3759 13.05 13.3759 13.1651C13.3782 17.2261 13.3782 21.2894 13.3759 25.3505C13.3759 25.4656 13.3547 25.5807 13.3453 25.6959L13.3571 25.6846Z" fill="black"/>
<path d="M40.1372 4.25518C40.1372 2.84657 40.1372 1.44022 40.1372 0C44.595 0 49.0223 0 53.5178 0C53.5178 1.41764 53.5178 2.83528 53.5178 4.25518L53.5295 4.2439C53.4097 4.25519 53.2898 4.27325 53.17 4.27325C48.9424 4.2755 44.7125 4.2755 40.485 4.27325C40.3651 4.27325 40.2453 4.25293 40.1254 4.2439L40.1372 4.25518Z" fill="black"/>
<path d="M26.7377 77.1351C26.7377 78.5437 26.7377 79.9501 26.7377 81.3903C22.2799 81.3903 17.8526 81.3903 13.3571 81.3903C13.3571 79.9726 13.3571 78.555 13.3571 77.1351L13.3454 77.1464C13.4652 77.1351 13.5851 77.117 13.7049 77.117C17.9325 77.1148 22.1624 77.1148 26.3899 77.117C26.5098 77.117 26.6296 77.1374 26.7495 77.1464C26.7495 77.1441 26.7377 77.1351 26.7377 77.1351Z" fill="black"/>
<path d="M80.2976 12.8288C81.7639 12.8288 83.228 12.8288 84.7296 12.8288C84.7296 17.1111 84.7296 21.3662 84.7296 25.6824C83.2562 25.6824 81.778 25.6824 80.2999 25.6824L80.3117 25.6937C80.2999 25.5785 80.2811 25.4634 80.2811 25.3483C80.2788 21.2872 80.2788 17.2239 80.2811 13.1629C80.2811 13.0478 80.3023 12.9326 80.3117 12.8175L80.2976 12.8288Z" fill="black"/>
<path d="M13.357 77.1351C11.8907 77.1351 10.4267 77.1351 8.92505 77.1351C8.92505 72.8528 8.92505 68.5976 8.92505 64.2815C10.3985 64.2815 11.8766 64.2815 13.3547 64.2815L13.3429 64.2702C13.3547 64.3853 13.3735 64.5005 13.3735 64.6156C13.3758 68.6766 13.3758 72.7399 13.3735 76.801C13.3735 76.9161 13.3523 77.0312 13.3429 77.1464C13.3453 77.1441 13.357 77.1351 13.357 77.1351Z" fill="black"/>
<path d="M4.42965 51.4099C2.96328 51.4099 1.49927 51.4099 0 51.4099C0 47.1276 0 42.8747 0 38.5563C1.47577 38.5563 2.95153 38.5563 4.42965 38.5563L4.4179 38.545C4.42965 38.6601 4.44845 38.7752 4.44845 38.8904C4.4508 42.9514 4.4508 47.0147 4.44845 51.0758C4.44845 51.1909 4.4273 51.306 4.4179 51.4211C4.4179 51.4189 4.42965 51.4099 4.42965 51.4099Z" fill="black"/>
<path d="M13.3571 12.8311C13.3571 11.4224 13.3571 10.0161 13.3571 8.57361C17.815 8.57361 22.2446 8.57361 26.7377 8.57361C26.7377 9.98899 26.7377 11.4089 26.7377 12.8288L26.7495 12.8175C26.6296 12.8288 26.5098 12.8469 26.3899 12.8469C22.1624 12.8491 17.9325 12.8491 13.7049 12.8469C13.5851 12.8469 13.4652 12.8265 13.3454 12.8175C13.3454 12.8198 13.3571 12.8311 13.3571 12.8311Z" fill="black"/>
<path d="M80.2977 34.2672C83.2492 34.2672 86.2031 34.2672 89.2251 34.2672C89.2251 35.7142 89.2251 37.1341 89.2251 38.554L89.2369 38.5427C89.1523 38.554 89.0653 38.5721 88.9807 38.5721C86.1984 38.5743 83.416 38.5743 80.6337 38.5721C80.5209 38.5721 80.4081 38.5359 80.3094 38.5201C80.3094 37.0754 80.3094 35.6645 80.3094 34.2559L80.2977 34.2672Z" fill="black"/>
<path d="M4.42953 38.554C4.42953 37.1454 4.42953 35.7368 4.42953 34.2672C7.42572 34.2672 10.3913 34.2672 13.357 34.2672L13.3452 34.2559C13.3452 35.6781 13.3452 37.098 13.3452 38.5743C13.1314 38.5743 12.9481 38.5743 12.7624 38.5743C11.1903 38.5743 9.61822 38.5788 8.04375 38.5721C6.83588 38.5675 5.62566 38.5517 4.41779 38.5427L4.42953 38.554Z" fill="black"/>
<path d="M35.6722 12.8288C35.6722 9.99354 35.6722 7.156 35.6722 4.25299C37.1785 4.25299 38.6566 4.25299 40.1347 4.25299L40.1229 4.2417C40.1347 4.32297 40.1535 4.40649 40.1535 4.48776C40.1558 7.16051 40.1558 9.83326 40.1535 12.506C40.1535 12.6144 40.1159 12.7227 40.0994 12.8175C38.5955 12.8175 37.1268 12.8175 35.6604 12.8175L35.6722 12.8288Z" fill="black"/>
<path d="M13.3571 64.2793C13.3571 61.4191 13.3571 58.5568 13.3571 55.6967L13.3454 55.7079C14.8353 55.7079 16.3251 55.7079 17.8103 55.7079C17.8103 58.5929 17.8103 61.4191 17.8103 64.2702C16.3016 64.2702 14.8235 64.2702 13.3454 64.2702L13.3571 64.2793Z" fill="black"/>
<path d="M80.2977 25.6847C80.2977 28.5448 80.2977 31.4072 80.2977 34.2673L80.3094 34.256C78.8196 34.256 77.3297 34.256 75.8445 34.256C75.8445 31.3711 75.8445 28.5448 75.8445 25.6937C77.3532 25.6937 78.8313 25.6937 80.3094 25.6937L80.2977 25.6847Z" fill="black"/>
<path d="M13.3571 34.2673C13.3571 31.4072 13.3571 28.5448 13.3571 25.6847L13.3454 25.696C14.8353 25.696 16.3251 25.696 17.8103 25.696C17.8103 28.5809 17.8103 31.4072 17.8103 34.2583C16.3016 34.2583 14.8235 34.2583 13.3454 34.2583L13.3571 34.2673Z" fill="black"/>
<path d="M35.6722 77.1329C32.6948 77.1329 29.7151 77.1329 26.7377 77.1329L26.7494 77.1441C26.7494 75.713 26.7494 74.2818 26.7494 72.8551C29.7527 72.8551 32.6948 72.8551 35.6628 72.8551C35.6628 74.3043 35.6628 75.7242 35.6628 77.1441L35.6722 77.1329Z" fill="black"/>
<path d="M53.5176 4.25518C54.984 4.25518 56.4504 4.25518 57.9802 4.25518C57.9802 7.13336 57.9802 9.98219 57.9802 12.831L57.9919 12.8197C56.5115 12.8197 55.0333 12.8197 53.4965 12.8197C53.4965 12.6143 53.4965 12.4382 53.4965 12.2599C53.4965 10.7497 53.4918 9.2395 53.4988 7.72705C53.5035 6.56675 53.52 5.4042 53.5294 4.2439L53.5176 4.25518Z" fill="black"/>
<path d="M57.9803 12.8288C60.9577 12.8288 63.9374 12.8288 66.9148 12.8288L66.903 12.8175C66.903 14.2487 66.903 15.6799 66.903 17.1066C63.8998 17.1066 60.9577 17.1066 57.9897 17.1066C57.9897 15.6573 57.9897 14.2374 57.9897 12.8175L57.9803 12.8288Z" fill="black"/>
<path d="M40.137 85.7087C38.6707 85.7087 37.2043 85.7087 35.6722 85.7087C35.6722 82.8305 35.6722 79.9817 35.6722 77.1329L35.6604 77.1442C37.1409 77.1442 38.619 77.1442 40.1558 77.1442C40.1558 77.3473 40.1558 77.5257 40.1558 77.704C40.1558 79.2142 40.1605 80.7244 40.1535 82.2368C40.1488 83.3971 40.1323 84.5597 40.1229 85.72L40.137 85.7087Z" fill="black"/>
<path d="M26.7377 12.8288C29.7151 12.8288 32.6948 12.8288 35.6722 12.8288L35.6604 12.8175C35.6604 14.2487 35.6604 15.6799 35.6604 17.1066C32.6572 17.1066 29.7151 17.1066 26.7471 17.1066C26.7471 15.6573 26.7471 14.2374 26.7471 12.8175L26.7377 12.8288Z" fill="black"/>
<path d="M13.357 55.6967C10.4054 55.6967 7.45156 55.6967 4.42953 55.6967C4.42953 54.2497 4.42953 52.8298 4.42953 51.4076L4.41779 51.4189C4.50238 51.4076 4.58933 51.3896 4.67393 51.3896C7.45626 51.3873 10.2386 51.3873 13.0209 51.3896C13.1337 51.3896 13.2465 51.4257 13.3452 51.4415C13.3452 52.8862 13.3452 54.2971 13.3452 55.7057L13.357 55.6967Z" fill="black"/>
<path d="M80.2976 77.1351C80.2976 78.5437 80.2976 79.9501 80.2976 81.3903C75.8397 81.3903 71.4124 81.3903 66.917 81.3903C66.917 79.9726 66.917 78.555 66.917 77.1351L66.9052 77.1464C67.0251 77.1351 67.1449 77.117 67.2648 77.117C71.4923 77.1148 75.7222 77.1148 79.9498 77.117C80.0696 77.117 80.1895 77.1374 80.3093 77.1464L80.2976 77.1351Z" fill="black"/>
<path d="M80.2977 64.2793C81.7641 64.2793 83.2281 64.2793 84.7273 64.2793C84.7273 68.5616 84.7273 72.8167 84.7273 77.1329C83.2516 77.1329 81.7735 77.1329 80.2953 77.1329L80.3071 77.1442C80.2953 77.029 80.2765 76.9139 80.2765 76.7988C80.2742 72.7377 80.2742 68.6744 80.2765 64.6134C80.2765 64.4983 80.2977 64.3831 80.3071 64.268L80.2977 64.2793Z" fill="black"/>
<path d="M89.2227 51.4099C89.2227 52.8185 89.2227 54.2271 89.2227 55.6966C86.2266 55.6966 83.2609 55.6966 80.2953 55.6966L80.307 55.7079C80.307 54.2858 80.307 52.8659 80.307 51.3895C80.5209 51.3895 80.7042 51.3895 80.8898 51.3895C82.4619 51.3895 84.0341 51.385 85.6085 51.3918C86.8164 51.3963 88.0266 51.4121 89.2345 51.4211L89.2227 51.4099Z" fill="black"/>
<path d="M80.2977 55.6967C80.2977 58.5568 80.2977 61.4191 80.2977 64.2793L80.3094 64.268C78.8196 64.268 77.3297 64.268 75.8445 64.268C75.8445 61.383 75.8445 58.5568 75.8445 55.7057C77.3532 55.7057 78.8313 55.7057 80.3094 55.7057L80.2977 55.6967Z" fill="black"/>
<path d="M66.9148 77.1351C63.9374 77.1351 60.9577 77.1351 57.9803 77.1351L57.992 77.1463C57.992 75.7152 57.992 74.284 57.992 72.8573C60.9953 72.8573 63.9374 72.8573 66.9054 72.8573C66.9054 74.3065 66.9054 75.7264 66.9054 77.1463L66.9148 77.1351Z" fill="black"/>
<path d="M57.9802 77.1329C57.9802 79.9682 57.9802 82.8057 57.9802 85.7087C56.4739 85.7087 54.9958 85.7087 53.5153 85.7087L53.5271 85.72C53.5153 85.6387 53.4965 85.5552 53.4965 85.4739C53.4942 82.8012 53.4942 80.1284 53.4965 77.4557C53.4965 77.3473 53.5341 77.239 53.5506 77.1442C55.0545 77.1442 56.5232 77.1442 57.9896 77.1442L57.9802 77.1329Z" fill="black"/>
<path d="M57.9919 77.1442C56.5255 77.1442 55.0568 77.1442 53.5528 77.1442C53.5364 77.239 53.4988 77.3474 53.4988 77.4557C53.4964 80.1285 53.4964 82.8012 53.4988 85.474C53.4988 85.5552 53.5176 85.6388 53.5293 85.72C53.4095 85.7087 53.2896 85.6907 53.1698 85.6907C48.9422 85.6884 44.7123 85.6884 40.4848 85.6907C40.3649 85.6907 40.2451 85.711 40.1252 85.72C40.137 84.5597 40.1534 83.3972 40.1558 82.2369C40.1605 80.7267 40.1581 79.2165 40.1581 77.704C40.1581 77.5257 40.1581 77.3474 40.1581 77.1442C38.6212 77.1442 37.1408 77.1442 35.6627 77.1442C35.6627 75.7243 35.6627 74.3044 35.6627 72.8551C32.697 72.8551 29.7526 72.8551 26.7493 72.8551C26.7493 74.2818 26.7493 75.713 26.7493 77.1442C26.6295 77.1329 26.5096 77.1148 26.3898 77.1148C22.1622 77.1126 17.9323 77.1126 13.7048 77.1148C13.5849 77.1148 13.4651 77.1352 13.3452 77.1442C13.357 77.0291 13.3758 76.9139 13.3758 76.7988C13.3781 72.7378 13.3781 68.6745 13.3758 64.6134C13.3758 64.4983 13.3546 64.3832 13.3452 64.268C14.8233 64.268 16.3015 64.268 17.8101 64.268C17.8101 61.4192 17.8101 58.5907 17.8101 55.7057C16.325 55.7057 14.8351 55.7057 13.3452 55.7057C13.3452 54.2971 13.3452 52.8863 13.3452 51.4415C13.2465 51.4257 13.1337 51.3896 13.0209 51.3896C10.2386 51.3873 7.45626 51.3873 4.67393 51.3896C4.58933 51.3896 4.50238 51.4077 4.41779 51.4189C4.42954 51.3038 4.44833 51.1887 4.44833 51.0736C4.45068 47.0125 4.45068 42.9492 4.44833 38.8882C4.44833 38.773 4.42719 38.6579 4.41779 38.5428C5.62566 38.5541 6.83588 38.5699 8.04375 38.5721C9.61587 38.5766 11.188 38.5744 12.7624 38.5744C12.9481 38.5744 13.1337 38.5744 13.3452 38.5744C13.3452 37.0981 13.3452 35.6759 13.3452 34.256C14.8233 34.256 16.3015 34.256 17.8101 34.256C17.8101 31.4072 17.8101 28.5786 17.8101 25.6937C16.325 25.6937 14.8351 25.6937 13.3452 25.6937C13.357 25.5786 13.3758 25.4634 13.3758 25.3483C13.3781 21.2873 13.3781 17.224 13.3758 13.1629C13.3758 13.0478 13.3546 12.9327 13.3452 12.8175C13.4651 12.8288 13.5849 12.8469 13.7048 12.8469C17.9323 12.8491 22.1622 12.8491 26.3898 12.8469C26.5096 12.8469 26.6295 12.8266 26.7493 12.8175C26.7493 14.2374 26.7493 15.6573 26.7493 17.1066C29.715 17.1066 32.6594 17.1066 35.6627 17.1066C35.6627 15.6799 35.6627 14.2487 35.6627 12.8175C37.129 12.8175 38.5978 12.8175 40.1017 12.8175C40.1182 12.7227 40.1558 12.6144 40.1558 12.506C40.1581 9.83326 40.1581 7.16051 40.1558 4.48776C40.1558 4.40649 40.137 4.32297 40.1252 4.2417C40.2451 4.25299 40.3649 4.27105 40.4848 4.27105C44.7123 4.2733 48.9422 4.2733 53.1698 4.27105C53.2896 4.27105 53.4095 4.25073 53.5293 4.2417C53.5176 5.402 53.5011 6.56456 53.4988 7.72486C53.4941 9.23506 53.4964 10.7452 53.4964 12.2577C53.4964 12.436 53.4964 12.6144 53.4964 12.8175C55.0333 12.8175 56.5137 12.8175 57.9919 12.8175C57.9919 14.2374 57.9919 15.6573 57.9919 17.1066C60.9575 17.1066 63.902 17.1066 66.9052 17.1066C66.9052 15.6799 66.9052 14.2487 66.9052 12.8175C67.025 12.8288 67.1449 12.8469 67.2647 12.8469C71.4923 12.8491 75.7222 12.8491 79.9498 12.8469C80.0696 12.8469 80.1894 12.8266 80.3093 12.8175C80.2975 12.9327 80.2787 13.0478 80.2787 13.1629C80.2764 17.224 80.2764 21.2873 80.2787 25.3483C80.2787 25.4634 80.2999 25.5786 80.3093 25.6937C78.8312 25.6937 77.3531 25.6937 75.8444 25.6937C75.8444 28.5425 75.8444 31.371 75.8444 34.256C77.3296 34.256 78.8194 34.256 80.3093 34.256C80.3093 35.6646 80.3093 37.0755 80.3093 38.5202C80.408 38.536 80.5208 38.5721 80.6336 38.5721C83.4159 38.5744 86.1983 38.5744 88.9806 38.5721C89.0652 38.5721 89.1521 38.5541 89.2367 38.5428C89.225 38.6579 89.2062 38.773 89.2062 38.8882C89.2038 42.9492 89.2038 47.0125 89.2062 51.0736C89.2062 51.1887 89.2273 51.3038 89.2367 51.4189C88.0289 51.4077 86.8186 51.3919 85.6108 51.3896C84.0387 51.3851 82.4665 51.3873 80.8921 51.3873C80.7064 51.3873 80.5208 51.3873 80.3093 51.3873C80.3093 52.8637 80.3093 54.2858 80.3093 55.7057C78.8312 55.7057 77.3531 55.7057 75.8444 55.7057C75.8444 58.5546 75.8444 61.3831 75.8444 64.268C77.3296 64.268 78.8194 64.268 80.3093 64.268C80.2975 64.3832 80.2787 64.4983 80.2787 64.6134C80.2764 68.6745 80.2764 72.7378 80.2787 76.7988C80.2787 76.9139 80.2999 77.0291 80.3093 77.1442C80.1894 77.1329 80.0696 77.1148 79.9498 77.1148C75.7222 77.1126 71.4923 77.1126 67.2647 77.1148C67.1449 77.1148 67.025 77.1352 66.9052 77.1442C66.9052 75.7243 66.9052 74.3044 66.9052 72.8551C63.9396 72.8551 60.9951 72.8551 57.9919 72.8551C57.9919 74.2818 57.9919 75.713 57.9919 77.1442ZM40.1393 38.5608C38.6494 38.5608 37.1572 38.5608 35.6744 38.5608C35.6744 42.8725 35.6744 47.1276 35.6744 51.4054C37.1831 51.4054 38.6612 51.4054 40.1393 51.4054C40.1393 52.8389 40.1393 54.27 40.1393 55.6967C44.6301 55.6967 49.0597 55.6967 53.5129 55.6967C53.5129 54.2452 53.5129 52.8253 53.5129 51.4054C55.0027 51.4054 56.4949 51.4054 57.9778 51.4054C57.9778 47.0938 57.9778 42.8386 57.9778 38.5608C56.4691 38.5608 54.991 38.5608 53.5129 38.5608C53.5129 37.1274 53.5129 35.6962 53.5129 34.2695C49.0221 34.2695 44.5925 34.2695 40.1393 34.2695C40.1393 35.7188 40.1393 37.1387 40.1393 38.5608Z" fill="#FEB0DC"/>
<path d="M53.5131 51.4031C53.5131 52.823 53.5131 54.2451 53.5131 55.6944C49.0599 55.6944 44.6279 55.6944 40.1395 55.6944C40.1395 54.2677 40.1395 52.8365 40.1395 51.4031L40.1254 51.4166C44.5927 51.4166 49.0599 51.4166 53.5248 51.4166L53.5131 51.4031Z" fill="black"/>
<path d="M40.1394 38.5608C40.1394 37.1409 40.1394 35.7188 40.1394 34.2695C44.5925 34.2695 49.0245 34.2695 53.5129 34.2695C53.5129 35.6962 53.5129 37.1274 53.5129 38.5608L53.527 38.5473C49.0598 38.5473 44.5925 38.5473 40.1276 38.5473L40.1394 38.5608Z" fill="black"/>
<path d="M40.1394 51.4031C38.6613 51.4031 37.1832 51.4031 35.6745 51.4031C35.6745 47.1276 35.6745 42.8701 35.6745 38.5585C37.1597 38.5585 38.6495 38.5585 40.1394 38.5585L40.1253 38.545C40.1253 42.8363 40.1253 47.1276 40.1253 51.4166L40.1394 51.4031Z" fill="black"/>
<path d="M53.5129 38.5608C54.9911 38.5608 56.4692 38.5608 57.9778 38.5608C57.9778 42.8363 57.9778 47.0937 57.9778 51.4054C56.4927 51.4054 55.0028 51.4054 53.5129 51.4054L53.527 51.4189C53.527 47.1276 53.527 42.8363 53.527 38.5472L53.5129 38.5608Z" fill="black"/>
</svg>
