<svg width="462" height="167" viewBox="0 0 462 167" fill="none" xmlns="http://www.w3.org/2000/svg">
<path fill-rule="evenodd" clip-rule="evenodd" d="M27.6761 19.5432V12.2001H50.7395V0.450928H408.222V12.2001H431.286V19.5432H449.736V34.2295H461.268L461.268 131.16H447.43V147.314H431.286V159.064H410.528V166.407H53.046V154.658H29.9826V147.315H11.5319V132.628H0V34.2295H9.22538V19.5432H27.6761ZM0 151.72H0.000177383V166.407L0 166.407V151.72ZM0 0.450962H20.7571V0.450928H0V0.450962Z" fill="white"/>
<path fill-rule="evenodd" clip-rule="evenodd" d="M15.727 20.4799V34.7865H6.74023V130.64H17.9736V144.947H35.9474V152.1H58.4141V163.545L406.651 163.545V156.392H426.872V144.947H442.599V129.21H456.079V34.7865H444.845V20.4799H426.872V13.3266H404.405V1.88147H56.1674V13.3266H33.7005V20.4799H15.727ZM6.74023 163.545V149.239H6.74039V163.545L29.2071 163.545H6.74023Z" fill="#861E1E"/>
<path d="M202.309 50H196.309V44H202.309V32H196.309V26H160.309V68H196.309V62H202.309V50ZM172.309 44V32H190.309V44H172.309ZM172.309 62V50H190.309V62H172.309ZM248.996 26H212.996V32H224.996V62H212.996V68H248.996V62H236.996V32H248.996V26ZM301.684 44H283.684V50H289.684V62H277.684V56H271.684V38H277.684V32H301.684V26H271.684V32H265.684V38H259.684V56H265.684V61.88H271.684V68H301.684V44ZM152.621 122H146.621V116H152.621V104H146.621V98H110.621V140H146.621V134H152.621V122ZM122.621 116V104H140.621V116H122.621ZM122.621 134V122H140.621V134H122.621ZM202.309 134H172.309V98H160.309V140H202.309V134ZM248.996 98H212.996V104H224.996V134H212.996V140H248.996V134H236.996V104H248.996V98ZM301.684 98H289.684V116H283.684V110H277.684V104H271.684V98H259.684V140H271.684V122H277.684V128H283.684V134H289.684V140H301.684V98ZM351.371 110H345.371V104H339.371V98H309.371V140H339.371V134H345.371V128H351.371V110ZM333.371 128V134H321.371V104H333.371V110H339.371V128H333.371Z" fill="white"/>
<path d="M202.309 50H203.309V49H202.309V50ZM196.309 50H195.309V51H196.309V50ZM196.309 44V43H195.309V44H196.309ZM202.309 44V45H203.309V44H202.309ZM202.309 32H203.309V31H202.309V32ZM196.309 32H195.309V33H196.309V32ZM196.309 26H197.309V25H196.309V26ZM160.309 26V25H159.309V26H160.309ZM160.309 68H159.309V69H160.309V68ZM196.309 68V69H197.309V68H196.309ZM196.309 62V61H195.309V62H196.309ZM202.309 62V63H203.309V62H202.309ZM172.309 44H171.309V45H172.309V44ZM172.309 32V31H171.309V32H172.309ZM190.309 32H191.309V31H190.309V32ZM190.309 44V45H191.309V44H190.309ZM172.309 62H171.309V63H172.309V62ZM172.309 50V49H171.309V50H172.309ZM190.309 50H191.309V49H190.309V50ZM190.309 62V63H191.309V62H190.309ZM202.309 49H196.309V51H202.309V49ZM197.309 50V44H195.309V50H197.309ZM196.309 45H202.309V43H196.309V45ZM203.309 44V32H201.309V44H203.309ZM202.309 31H196.309V33H202.309V31ZM197.309 32V26H195.309V32H197.309ZM196.309 25H160.309V27H196.309V25ZM159.309 26V68H161.309V26H159.309ZM160.309 69H196.309V67H160.309V69ZM197.309 68V62H195.309V68H197.309ZM196.309 63H202.309V61H196.309V63ZM203.309 62V50H201.309V62H203.309ZM173.309 44V32H171.309V44H173.309ZM172.309 33H190.309V31H172.309V33ZM189.309 32V44H191.309V32H189.309ZM190.309 43H172.309V45H190.309V43ZM173.309 62V50H171.309V62H173.309ZM172.309 51H190.309V49H172.309V51ZM189.309 50V62H191.309V50H189.309ZM190.309 61H172.309V63H190.309V61ZM248.996 26H249.996V25H248.996V26ZM212.996 26V25H211.996V26H212.996ZM212.996 32H211.996V33H212.996V32ZM224.996 32H225.996V31H224.996V32ZM224.996 62V63H225.996V62H224.996ZM212.996 62V61H211.996V62H212.996ZM212.996 68H211.996V69H212.996V68ZM248.996 68V69H249.996V68H248.996ZM248.996 62H249.996V61H248.996V62ZM236.996 62H235.996V63H236.996V62ZM236.996 32V31H235.996V32H236.996ZM248.996 32V33H249.996V32H248.996ZM248.996 25H212.996V27H248.996V25ZM211.996 26V32H213.996V26H211.996ZM212.996 33H224.996V31H212.996V33ZM223.996 32V62H225.996V32H223.996ZM224.996 61H212.996V63H224.996V61ZM211.996 62V68H213.996V62H211.996ZM212.996 69H248.996V67H212.996V69ZM249.996 68V62H247.996V68H249.996ZM248.996 61H236.996V63H248.996V61ZM237.996 62V32H235.996V62H237.996ZM236.996 33H248.996V31H236.996V33ZM249.996 32V26H247.996V32H249.996ZM301.684 44H302.684V43H301.684V44ZM283.684 44V43H282.684V44H283.684ZM283.684 50H282.684V51H283.684V50ZM289.684 50H290.684V49H289.684V50ZM289.684 62V63H290.684V62H289.684ZM277.684 62H276.684V63H277.684V62ZM277.684 56H278.684V55H277.684V56ZM271.684 56H270.684V57H271.684V56ZM271.684 38V37H270.684V38H271.684ZM277.684 38V39H278.684V38H277.684ZM277.684 32V31H276.684V32H277.684ZM301.684 32V33H302.684V32H301.684ZM301.684 26H302.684V25H301.684V26ZM271.684 26V25H270.684V26H271.684ZM271.684 32V33H272.684V32H271.684ZM265.684 32V31H264.684V32H265.684ZM265.684 38V39H266.684V38H265.684ZM259.684 38V37H258.684V38H259.684ZM259.684 56H258.684V57H259.684V56ZM265.684 56H266.684V55H265.684V56ZM265.684 61.88H264.684V62.88H265.684V61.88ZM271.684 61.88H272.684V60.88H271.684V61.88ZM271.684 68H270.684V69H271.684V68ZM301.684 68V69H302.684V68H301.684ZM301.684 43H283.684V45H301.684V43ZM282.684 44V50H284.684V44H282.684ZM283.684 51H289.684V49H283.684V51ZM288.684 50V62H290.684V50H288.684ZM289.684 61H277.684V63H289.684V61ZM278.684 62V56H276.684V62H278.684ZM277.684 55H271.684V57H277.684V55ZM272.684 56V38H270.684V56H272.684ZM271.684 39H277.684V37H271.684V39ZM278.684 38V32H276.684V38H278.684ZM277.684 33H301.684V31H277.684V33ZM302.684 32V26H300.684V32H302.684ZM301.684 25H271.684V27H301.684V25ZM270.684 26V32H272.684V26H270.684ZM271.684 31H265.684V33H271.684V31ZM264.684 32V38H266.684V32H264.684ZM265.684 37H259.684V39H265.684V37ZM258.684 38V56H260.684V38H258.684ZM259.684 57H265.684V55H259.684V57ZM264.684 56V61.88H266.684V56H264.684ZM265.684 62.88H271.684V60.88H265.684V62.88ZM270.684 61.88V68H272.684V61.88H270.684ZM271.684 69H301.684V67H271.684V69ZM302.684 68V44H300.684V68H302.684ZM152.621 122H153.621V121H152.621V122ZM146.621 122H145.621V123H146.621V122ZM146.621 116V115H145.621V116H146.621ZM152.621 116V117H153.621V116H152.621ZM152.621 104H153.621V103H152.621V104ZM146.621 104H145.621V105H146.621V104ZM146.621 98H147.621V97H146.621V98ZM110.621 98V97H109.621V98H110.621ZM110.621 140H109.621V141H110.621V140ZM146.621 140V141H147.621V140H146.621ZM146.621 134V133H145.621V134H146.621ZM152.621 134V135H153.621V134H152.621ZM122.621 116H121.621V117H122.621V116ZM122.621 104V103H121.621V104H122.621ZM140.621 104H141.621V103H140.621V104ZM140.621 116V117H141.621V116H140.621ZM122.621 134H121.621V135H122.621V134ZM122.621 122V121H121.621V122H122.621ZM140.621 122H141.621V121H140.621V122ZM140.621 134V135H141.621V134H140.621ZM152.621 121H146.621V123H152.621V121ZM147.621 122V116H145.621V122H147.621ZM146.621 117H152.621V115H146.621V117ZM153.621 116V104H151.621V116H153.621ZM152.621 103H146.621V105H152.621V103ZM147.621 104V98H145.621V104H147.621ZM146.621 97H110.621V99H146.621V97ZM109.621 98V140H111.621V98H109.621ZM110.621 141H146.621V139H110.621V141ZM147.621 140V134H145.621V140H147.621ZM146.621 135H152.621V133H146.621V135ZM153.621 134V122H151.621V134H153.621ZM123.621 116V104H121.621V116H123.621ZM122.621 105H140.621V103H122.621V105ZM139.621 104V116H141.621V104H139.621ZM140.621 115H122.621V117H140.621V115ZM123.621 134V122H121.621V134H123.621ZM122.621 123H140.621V121H122.621V123ZM139.621 122V134H141.621V122H139.621ZM140.621 133H122.621V135H140.621V133ZM202.309 134H203.309V133H202.309V134ZM172.309 134H171.309V135H172.309V134ZM172.309 98H173.309V97H172.309V98ZM160.309 98V97H159.309V98H160.309ZM160.309 140H159.309V141H160.309V140ZM202.309 140V141H203.309V140H202.309ZM202.309 133H172.309V135H202.309V133ZM173.309 134V98H171.309V134H173.309ZM172.309 97H160.309V99H172.309V97ZM159.309 98V140H161.309V98H159.309ZM160.309 141H202.309V139H160.309V141ZM203.309 140V134H201.309V140H203.309ZM248.996 98H249.996V97H248.996V98ZM212.996 98V97H211.996V98H212.996ZM212.996 104H211.996V105H212.996V104ZM224.996 104H225.996V103H224.996V104ZM224.996 134V135H225.996V134H224.996ZM212.996 134V133H211.996V134H212.996ZM212.996 140H211.996V141H212.996V140ZM248.996 140V141H249.996V140H248.996ZM248.996 134H249.996V133H248.996V134ZM236.996 134H235.996V135H236.996V134ZM236.996 104V103H235.996V104H236.996ZM248.996 104V105H249.996V104H248.996ZM248.996 97H212.996V99H248.996V97ZM211.996 98V104H213.996V98H211.996ZM212.996 105H224.996V103H212.996V105ZM223.996 104V134H225.996V104H223.996ZM224.996 133H212.996V135H224.996V133ZM211.996 134V140H213.996V134H211.996ZM212.996 141H248.996V139H212.996V141ZM249.996 140V134H247.996V140H249.996ZM248.996 133H236.996V135H248.996V133ZM237.996 134V104H235.996V134H237.996ZM236.996 105H248.996V103H236.996V105ZM249.996 104V98H247.996V104H249.996ZM301.684 98H302.684V97H301.684V98ZM289.684 98V97H288.684V98H289.684ZM289.684 116V117H290.684V116H289.684ZM283.684 116H282.684V117H283.684V116ZM283.684 110H284.684V109H283.684V110ZM277.684 110H276.684V111H277.684V110ZM277.684 104H278.684V103H277.684V104ZM271.684 104H270.684V105H271.684V104ZM271.684 98H272.684V97H271.684V98ZM259.684 98V97H258.684V98H259.684ZM259.684 140H258.684V141H259.684V140ZM271.684 140V141H272.684V140H271.684ZM271.684 122V121H270.684V122H271.684ZM277.684 122H278.684V121H277.684V122ZM277.684 128H276.684V129H277.684V128ZM283.684 128H284.684V127H283.684V128ZM283.684 134H282.684V135H283.684V134ZM289.684 134H290.684V133H289.684V134ZM289.684 140H288.684V141H289.684V140ZM301.684 140V141H302.684V140H301.684ZM301.684 97H289.684V99H301.684V97ZM288.684 98V116H290.684V98H288.684ZM289.684 115H283.684V117H289.684V115ZM284.684 116V110H282.684V116H284.684ZM283.684 109H277.684V111H283.684V109ZM278.684 110V104H276.684V110H278.684ZM277.684 103H271.684V105H277.684V103ZM272.684 104V98H270.684V104H272.684ZM271.684 97H259.684V99H271.684V97ZM258.684 98V140H260.684V98H258.684ZM259.684 141H271.684V139H259.684V141ZM272.684 140V122H270.684V140H272.684ZM271.684 123H277.684V121H271.684V123ZM276.684 122V128H278.684V122H276.684ZM277.684 129H283.684V127H277.684V129ZM282.684 128V134H284.684V128H282.684ZM283.684 135H289.684V133H283.684V135ZM288.684 134V140H290.684V134H288.684ZM289.684 141H301.684V139H289.684V141ZM302.684 140V98H300.684V140H302.684ZM351.371 110H352.371V109H351.371V110ZM345.371 110H344.371V111H345.371V110ZM345.371 104H346.371V103H345.371V104ZM339.371 104H338.371V105H339.371V104ZM339.371 98H340.371V97H339.371V98ZM309.371 98V97H308.371V98H309.371ZM309.371 140H308.371V141H309.371V140ZM339.371 140V141H340.371V140H339.371ZM339.371 134V133H338.371V134H339.371ZM345.371 134V135H346.371V134H345.371ZM345.371 128V127H344.371V128H345.371ZM351.371 128V129H352.371V128H351.371ZM333.371 128V127H332.371V128H333.371ZM333.371 134V135H334.371V134H333.371ZM321.371 134H320.371V135H321.371V134ZM321.371 104V103H320.371V104H321.371ZM333.371 104H334.371V103H333.371V104ZM333.371 110H332.371V111H333.371V110ZM339.371 110H340.371V109H339.371V110ZM339.371 128V129H340.371V128H339.371ZM351.371 109H345.371V111H351.371V109ZM346.371 110V104H344.371V110H346.371ZM345.371 103H339.371V105H345.371V103ZM340.371 104V98H338.371V104H340.371ZM339.371 97H309.371V99H339.371V97ZM308.371 98V140H310.371V98H308.371ZM309.371 141H339.371V139H309.371V141ZM340.371 140V134H338.371V140H340.371ZM339.371 135H345.371V133H339.371V135ZM346.371 134V128H344.371V134H346.371ZM345.371 129H351.371V127H345.371V129ZM352.371 128V110H350.371V128H352.371ZM332.371 128V134H334.371V128H332.371ZM333.371 133H321.371V135H333.371V133ZM322.371 134V104H320.371V134H322.371ZM321.371 105H333.371V103H321.371V105ZM332.371 104V110H334.371V104H332.371ZM333.371 111H339.371V109H333.371V111ZM338.371 110V128H340.371V110H338.371ZM339.371 127H333.371V129H339.371V127Z" fill="black"/>
</svg>
