<svg width="1049" height="127" viewBox="0 0 1049 127" fill="none" xmlns="http://www.w3.org/2000/svg">
<path fill-rule="evenodd" clip-rule="evenodd" d="M6.1289 13.7503V24.9769H0V108.703H5.12891V121.388H17.5166V127H1026.34V121.918H1035.81V112.829H1043.17V100.332H1049V25.3521H1044.22V13.9915H1035.81V8.31125H1025.29V0H33.999V8.13707H18.5151V13.7503H6.1289Z" fill="white"/>
<path fill-rule="evenodd" clip-rule="evenodd" d="M9.36527 17.6866V31.6981H4V104.971H7.59229V118.604H21.4956V124.674H1019.36V120.351H1031.14V111.602H1040.3V99.5725H1046.94V27.3928H1041.6V16.4566H1031.13V10.9885H1018.05V1.09351H37.5645V10.6809H21.8985V17.6866H9.36527ZM1046.94 2.23938V1.09351H1035.06V2.23938H1046.94Z" fill="#402F5C"/>
</svg>
