<svg width="236" height="63" viewBox="0 0 236 63" fill="none" xmlns="http://www.w3.org/2000/svg">
<path fill-rule="evenodd" clip-rule="evenodd" d="M14.16 7.24779V4.46014H25.9601V0H208.86V4.46014H220.66V7.24779H230.1V12.823H236V49.6195H228.92V55.7522H220.66V60.2124H210.04V63H27.1401V58.5399H15.3401V55.7522H5.90005V50.177H0V12.823H4.72001V7.24779H14.16ZM0 57.4248H5.72205e-05V63L11.8001 63H0V57.4248Z" fill="white"/>
<path fill-rule="evenodd" clip-rule="evenodd" d="M8.0464 7.60343V13.0345H3.44846V49.4224H9.19592V54.8535H18.3918V57.569H29.8866V61.9138L208.056 61.9138V59.1983H218.402V54.8535H226.448V48.8793H233.345V13.0345H227.598V7.60343H218.402V4.88793H206.907V0.543091H28.737V4.88793H17.2423V7.60343H8.0464Z" fill="#EBAF45"/>
</svg>
