<svg width="124" height="119" viewBox="0 0 124 119" fill="none" xmlns="http://www.w3.org/2000/svg">
<path fill-rule="evenodd" clip-rule="evenodd" d="M0 24.2213V94.7787H3.10012V105.31H8.06023V110.575H14.2601V119H110.36V113.734H115.94V105.31H120.28V93.7258H124L124 24.2213H120.9V13.6903H115.94V8.4247H109.74V0H13.6399V8.4247H7.43992V13.6903H2.48008V24.2213H0ZM118.42 119V119H124V107.416L124 119H118.42ZM0 119V108.469H0.000217915V119L0 119Z" fill="white"/>
<path fill-rule="evenodd" clip-rule="evenodd" d="M1.81201 24.6207V93.3534H4.83194V103.612H9.66358V108.741H15.7032V116.948H109.318V111.819H114.753V103.612H118.981V92.3276H122.605V24.6207H119.585V14.3621H114.753V9.23275H108.714V1.02588H15.099V9.23275H9.05955V14.3621H4.22764V24.6207H1.81201ZM117.169 116.948L122.605 116.948V105.664H122.605V116.948H117.169ZM122.605 11.2845H122.605V1.02588H122.605V11.2845Z" fill="black"/>
<path d="M89.1547 74.2586H81.1547V66.2586H73.1547V58.2586H81.1547V50.2586H89.1547V34.2586H73.1547V42.2586H65.1547V50.2586H57.1547V42.2586H49.1547V34.2586H33.1547V50.2586H41.1547V58.2586H49.1547V66.2586H41.1547V74.2586H33.1547V90.2586H49.1547V82.2586H57.1547V74.2586H65.1547V82.2586H73.1547V90.2586H89.1547V74.2586Z" fill="white"/>
<path d="M89.1547 74.2586H90.1547V73.2586H89.1547V74.2586ZM81.1547 74.2586H80.1547V75.2586H81.1547V74.2586ZM81.1547 66.2586H82.1547V65.2586H81.1547V66.2586ZM73.1547 66.2586H72.1547V67.2586H73.1547V66.2586ZM73.1547 58.2586V57.2586H72.1547V58.2586H73.1547ZM81.1547 58.2586V59.2586H82.1547V58.2586H81.1547ZM81.1547 50.2586V49.2586H80.1547V50.2586H81.1547ZM89.1547 50.2586V51.2586H90.1547V50.2586H89.1547ZM89.1547 34.2586H90.1547V33.2586H89.1547V34.2586ZM73.1547 34.2586V33.2586H72.1547V34.2586H73.1547ZM73.1547 42.2586V43.2586H74.1547V42.2586H73.1547ZM65.1547 42.2586V41.2586H64.1547V42.2586H65.1547ZM65.1547 50.2586V51.2586H66.1547V50.2586H65.1547ZM57.1547 50.2586H56.1547V51.2586H57.1547V50.2586ZM57.1547 42.2586H58.1547V41.2586H57.1547V42.2586ZM49.1547 42.2586H48.1547V43.2586H49.1547V42.2586ZM49.1547 34.2586H50.1547V33.2586H49.1547V34.2586ZM33.1547 34.2586V33.2586H32.1547V34.2586H33.1547ZM33.1547 50.2586H32.1547V51.2586H33.1547V50.2586ZM41.1547 50.2586H42.1547V49.2586H41.1547V50.2586ZM41.1547 58.2586H40.1547V59.2586H41.1547V58.2586ZM49.1547 58.2586H50.1547V57.2586H49.1547V58.2586ZM49.1547 66.2586V67.2586H50.1547V66.2586H49.1547ZM41.1547 66.2586V65.2586H40.1547V66.2586H41.1547ZM41.1547 74.2586V75.2586H42.1547V74.2586H41.1547ZM33.1547 74.2586V73.2586H32.1547V74.2586H33.1547ZM33.1547 90.2586H32.1547V91.2586H33.1547V90.2586ZM49.1547 90.2586V91.2586H50.1547V90.2586H49.1547ZM49.1547 82.2586V81.2586H48.1547V82.2586H49.1547ZM57.1547 82.2586V83.2586H58.1547V82.2586H57.1547ZM57.1547 74.2586V73.2586H56.1547V74.2586H57.1547ZM65.1547 74.2586H66.1547V73.2586H65.1547V74.2586ZM65.1547 82.2586H64.1547V83.2586H65.1547V82.2586ZM73.1547 82.2586H74.1547V81.2586H73.1547V82.2586ZM73.1547 90.2586H72.1547V91.2586H73.1547V90.2586ZM89.1547 90.2586V91.2586H90.1547V90.2586H89.1547ZM89.1547 73.2586H81.1547V75.2586H89.1547V73.2586ZM82.1547 74.2586V66.2586H80.1547V74.2586H82.1547ZM81.1547 65.2586H73.1547V67.2586H81.1547V65.2586ZM74.1547 66.2586V58.2586H72.1547V66.2586H74.1547ZM73.1547 59.2586H81.1547V57.2586H73.1547V59.2586ZM82.1547 58.2586V50.2586H80.1547V58.2586H82.1547ZM81.1547 51.2586H89.1547V49.2586H81.1547V51.2586ZM90.1547 50.2586V34.2586H88.1547V50.2586H90.1547ZM89.1547 33.2586H73.1547V35.2586H89.1547V33.2586ZM72.1547 34.2586V42.2586H74.1547V34.2586H72.1547ZM73.1547 41.2586H65.1547V43.2586H73.1547V41.2586ZM64.1547 42.2586V50.2586H66.1547V42.2586H64.1547ZM65.1547 49.2586H57.1547V51.2586H65.1547V49.2586ZM58.1547 50.2586V42.2586H56.1547V50.2586H58.1547ZM57.1547 41.2586H49.1547V43.2586H57.1547V41.2586ZM50.1547 42.2586V34.2586H48.1547V42.2586H50.1547ZM49.1547 33.2586H33.1547V35.2586H49.1547V33.2586ZM32.1547 34.2586V50.2586H34.1547V34.2586H32.1547ZM33.1547 51.2586H41.1547V49.2586H33.1547V51.2586ZM40.1547 50.2586V58.2586H42.1547V50.2586H40.1547ZM41.1547 59.2586H49.1547V57.2586H41.1547V59.2586ZM48.1547 58.2586V66.2586H50.1547V58.2586H48.1547ZM49.1547 65.2586H41.1547V67.2586H49.1547V65.2586ZM40.1547 66.2586V74.2586H42.1547V66.2586H40.1547ZM41.1547 73.2586H33.1547V75.2586H41.1547V73.2586ZM32.1547 74.2586V90.2586H34.1547V74.2586H32.1547ZM33.1547 91.2586H49.1547V89.2586H33.1547V91.2586ZM50.1547 90.2586V82.2586H48.1547V90.2586H50.1547ZM49.1547 83.2586H57.1547V81.2586H49.1547V83.2586ZM58.1547 82.2586V74.2586H56.1547V82.2586H58.1547ZM57.1547 75.2586H65.1547V73.2586H57.1547V75.2586ZM64.1547 74.2586V82.2586H66.1547V74.2586H64.1547ZM65.1547 83.2586H73.1547V81.2586H65.1547V83.2586ZM72.1547 82.2586V90.2586H74.1547V82.2586H72.1547ZM73.1547 91.2586H89.1547V89.2586H73.1547V91.2586ZM90.1547 90.2586V74.2586H88.1547V90.2586H90.1547Z" fill="black"/>
</svg>
