<svg width="51" height="47" viewBox="0 0 51 47" fill="none" xmlns="http://www.w3.org/2000/svg">
<path d="M41.9522 40.7368H40.2711V42.3061H41.9522V40.7368Z" fill="#F2A317"/>
<path d="M43.6286 36.0334H41.9522V37.6028H43.6286V36.0334Z" fill="#F2A317"/>
<path d="M10.0678 20.3683H8.39136V21.9377H10.0678V20.3683Z" fill="#FAF1CE"/>
<path d="M48.6625 15.6697H46.9814H45.305H43.6286V17.2344V18.8037V20.3683V21.9376V23.5023V25.0716V26.6316V28.2009V29.7702V31.3349V32.9042H41.9522V34.4688V36.0335H43.6286V37.6028H41.9522V36.0335H40.2711V37.6028H38.5947V39.1674H36.9183V40.7367V42.3014H35.2372H33.5608V43.8707H31.8798V45.4353H30.2034H28.5269V47H30.2034H31.8798H33.5608H35.2372V45.4353H36.9183H38.5947V43.8707H40.2711V42.3014V40.7367H41.9522V42.3014H43.6286V40.7367V39.1674H45.305V37.6028H46.9814V36.0335V34.4688H48.6625V32.9042V31.3349H50.3436V29.7702V28.2009V26.6316V25.0716V23.5023V21.9376V20.3683V18.8037V17.2344V15.6697H48.6625Z" fill="#F2A317"/>
<path d="M31.8798 45.3981V45.4353H28.5269V47H35.2372V45.4353H38.5947V45.3981H31.8798Z" fill="#1D1D1B"/>
<path d="M41.9522 10.9712H40.2711V12.5405H41.9522V10.9712Z" fill="white"/>
<path d="M40.2711 15.6697V10.9711H38.5946V9.40184H36.9183V7.83253H35.2372V6.26788H33.5608V4.70323H31.8658V3.13859H28.513V1.56927H15.1017V3.13859H11.7489V4.70323H10.0677V6.26788H8.39135V7.83253H6.71961V9.40184H5.04321V12.5451H3.36215V15.6791H1.68109V31.3442H3.36215V34.4781H5.04321V37.6121H6.71961V39.1767H8.39601V40.746H10.0724V42.3107H11.7535V43.88H15.1063V45.4446H28.5315V43.88H31.8844V42.3014H33.5655V40.7367H35.2419V39.1674H36.9229V37.6028H38.5993V36.0335H40.2758V32.9042H41.9568V15.6744L40.2711 15.6697ZM8.39135 17.2344V14.1051H10.0677V12.5451H11.7489V10.9805H13.4253V9.41115H15.1017V7.84184H28.5269V9.41115H30.2033V10.9805H31.8797V12.5451H33.5608V14.1144H35.2372V17.2437H36.9183V29.7749H35.2372V32.9088H33.5608V34.4735H31.8658V36.0381H30.1894V37.6074H28.513V39.1721H15.1017V37.6074H13.4253V36.0381H11.7489V34.4735H10.0677V32.9088H8.39135V29.7749H6.71961V17.2344H8.39135Z" fill="#FDCD00"/>
<path d="M11.7489 15.6698H10.0677V17.2344V18.8037V20.3684V21.9377V23.5023V25.0716V26.6316V28.2009H11.7489V29.7702V31.3349H13.4253V32.9042H15.1017V34.4688H16.7781H18.4591V36.0335H20.1402H21.812H23.493H25.1694H26.8505V34.4688H28.5269H30.2033V32.9042H31.8797V31.3349H33.5608V29.7702V28.2009H35.2372V26.6316V25.0716V23.5023V21.9377V20.3684V18.8037H33.5608V17.2344V15.6698V14.1051H31.8797V12.5358H30.2033V10.9712H28.5269H26.8505V9.40186H25.1694H23.493H21.812H20.1402H18.4591H16.7781V10.9712H15.1017H13.4253V12.5358H11.7489V14.1051V15.6698Z" fill="#FDCD00"/>
<path d="M46.9814 10.9711V9.40176V7.83246H45.305V9.40176H43.6286H41.9522V10.9711V12.5357V14.105H43.6286V12.5357H45.305H46.9814V14.105V15.6697H48.6625V14.105V12.5357V10.9711H46.9814Z" fill="#F2A317"/>
<path d="M43.6286 6.26791V4.70326H41.9522H40.2711V3.13861H38.5947V1.5693H36.9183H35.2372V0H33.5608H31.8798H30.2034H28.5269V1.5693H30.2034H31.8798V3.13861H33.5608V4.70326H35.2372V6.26791H36.9183V7.83256H38.5947H40.2711H41.9522H43.6286H45.305V6.26791H43.6286Z" fill="#F2A317"/>
<path d="M46.9814 10.9711V9.40176V7.83246H45.305V9.40176H43.6286H41.9522V10.9711V12.5357V14.105H43.6286V12.5357H45.305H46.9814V14.105V15.6697H48.6625V14.105V12.5357V10.9711H46.9814Z" fill="#F2A317"/>
<path d="M46.9814 10.9711V9.40176V7.83246H45.305V9.40176V10.9711H46.9814V12.5357V14.105V15.6697H48.6625V14.105V12.5357V10.9711H46.9814Z" fill="#1D1D1B"/>
<path d="M40.2711 3.13861H38.5947V4.70791H40.2711V3.13861Z" fill="#1D1D1B"/>
<path d="M40.2711 6.26784H41.9522H43.6286V4.70319H41.9522H40.2711V6.26784Z" fill="#1D1D1B"/>
<path d="M36.9183 3.13859H38.5947V1.56927H36.9183H35.2372V3.13859H36.9183Z" fill="#1D1D1B"/>
<path d="M45.3097 6.26788H43.6286V7.83719H45.3097V6.26788Z" fill="#1D1D1B"/>
<path d="M30.2034 1.5693H31.8798H33.5608H35.2372V0H33.5608H31.8798H30.2034H28.5269V1.5693H30.2034Z" fill="#1D1D1B"/>
<path d="M41.9522 36.0334H40.2711V37.6028H41.9522V36.0334Z" fill="#1D1D1B"/>
<path d="M48.6624 15.6697H46.9814H48.6624V17.2344V18.8037V20.3683V21.9376V23.5023V25.0716V26.6316V28.2009V29.7702V31.3349H50.3436V29.7702V28.2009V26.6316V25.0716V23.5023V21.9376V20.3683V18.8037V17.2344V15.6697H48.6624Z" fill="#1D1D1B"/>
<path d="M41.9522 39.1674V40.7367V42.3013H43.6286V40.7367V39.1674H41.9522Z" fill="#1D1D1B"/>
<path d="M45.3097 37.6028H43.6286V39.1721H45.3097V37.6028Z" fill="#1D1D1B"/>
<path d="M46.9814 31.3349V32.9042V34.4688H45.305V36.0335V37.6028H46.9814V36.0335V34.4688H48.6625V32.9042V31.3349H46.9814Z" fill="#1D1D1B"/>
<path d="M35.2372 45.4353H33.5608V46.9999H35.2372V45.4353Z" fill="#1D1D1B"/>
<path d="M40.2711 42.3014V40.7368H38.5947V42.3014V43.8707H40.2711V42.3014Z" fill="#1D1D1B"/>
<path d="M38.5993 43.8707H36.9183V45.44H38.5993V43.8707Z" fill="#1D1D1B"/>
<path d="M28.5269 43.8707V45.4353H26.8505H25.1695H23.4931H21.812H20.1402H18.4591H16.7781H15.1017V47H16.7781H18.4591H20.1402H21.812H23.4931H25.1695H26.8505H28.5269V45.4353H30.2034H31.8798V43.8707H30.2034H28.5269Z" fill="#1D1D1B"/>
<path d="M33.5608 42.3013H31.8798V43.8706H33.5608V42.3013Z" fill="#1D1D1B"/>
<path d="M35.2372 40.7367H33.5608V42.3013H35.2372H36.9182V40.7367V39.1674H35.2372V40.7367Z" fill="#1D1D1B"/>
<path d="M38.5993 37.6028H36.9183V39.1721H38.5993V37.6028Z" fill="#1D1D1B"/>
<path d="M40.2711 36.0334H38.5947V37.6028H40.2711V36.0334Z" fill="#1D1D1B"/>
<path d="M40.2711 34.4688V36.0335H41.9522V34.4688V32.9042H40.2711V34.4688Z" fill="#1D1D1B"/>
<path d="M41.9522 17.2344V18.8037V20.3684V21.9377V23.5023V25.0716V26.6316V28.2009V29.7703V31.3349V32.9042H43.6286V31.3349V29.7703V28.2009V26.6316V25.0716V23.5023V21.9377V20.3684V18.8037V17.2344H41.9522Z" fill="#1D1D1B"/>
<path d="M40.2711 14.1051V15.6697H41.9522V14.1051V12.5358H40.2711V14.1051Z" fill="#1D1D1B"/>
<path d="M40.2711 9.40186H38.5947V10.9712H40.2711V9.40186Z" fill="#1D1D1B"/>
<path d="M31.8798 34.4689H30.2034V36.0335H31.8798V34.4689Z" fill="#1D1D1B"/>
<path d="M33.5608 17.2345V18.8038H35.2372V20.3684V21.9377V23.5024V25.0717V26.6317V28.201H33.5608V29.7703V31.3349H31.8798V32.9042V34.4689H33.5608V32.9042H35.2372V31.3349V29.7703H36.9183V28.201V26.6317V25.0717V23.5024V21.9377V20.3684V18.8038V17.2345H35.2372V15.6698V14.1052H33.5608V15.6698V17.2345Z" fill="#1D1D1B"/>
<path d="M33.5608 12.5358H31.8798V14.1051H33.5608V12.5358Z" fill="#1D1D1B"/>
<path d="M31.8798 10.9712H30.2034V12.5405H31.8798V10.9712Z" fill="#1D1D1B"/>
<path d="M38.5993 7.83246H36.9183V9.40176H38.5993V7.83246Z" fill="#1D1D1B"/>
<path d="M36.9183 6.26788H35.2372V7.83719H36.9183V6.26788Z" fill="#1D1D1B"/>
<path d="M35.2372 4.70319H33.5608V6.26784H35.2372V4.70319Z" fill="#1D1D1B"/>
<path d="M33.5608 3.13861H31.8798V4.70791H33.5608V3.13861Z" fill="#1D1D1B"/>
<path d="M28.5269 3.13859H30.2034H31.8798V1.56927H30.2034H28.5269V3.13859Z" fill="#1D1D1B"/>
<path d="M13.4253 43.8707H11.7489V45.4353H13.4253H15.1017V43.8707H13.4253Z" fill="#1D1D1B"/>
<path d="M11.7489 42.3013H10.0677V43.8706H11.7489V42.3013Z" fill="#1D1D1B"/>
<path d="M8.39136 40.7367V39.1674H6.71497V40.7367V42.3013H8.39136H10.0678V40.7367H8.39136Z" fill="#1D1D1B"/>
<path d="M6.71497 37.6028H5.03857V39.1721H6.71497V37.6028Z" fill="#1D1D1B"/>
<path d="M16.7781 39.1674H18.4591H20.1402H21.812H23.4931H25.1695H26.8505H28.5269V37.6028H30.2034V36.0334H28.5269H26.8505V37.6028H25.1695H23.4931H21.812H20.1402H18.4591H16.7781V36.0334H15.1017H13.4253V37.6028H15.1017V39.1674H16.7781Z" fill="#1D1D1B"/>
<path d="M13.4253 34.4689H11.7489V36.0335H13.4253V34.4689Z" fill="#1D1D1B"/>
<path d="M5.0386 34.4689H3.35754V36.0335V37.6028H5.0386V36.0335V34.4689Z" fill="#1D1D1B"/>
<path d="M3.35751 31.3349H1.67645V32.9042V34.4688H3.35751V32.9042V31.3349Z" fill="#1D1D1B"/>
<path d="M1.67645 28.2009V26.6316V25.0716V23.5023V21.9377V20.3684V18.8037V17.2344H0V18.8037V20.3684V21.9377V23.5023V25.0716V26.6316V28.2009V29.7703H1.67645V28.2009Z" fill="#1D1D1B"/>
<path d="M11.7489 31.3348H10.0678V29.7702V28.2009H8.39136V26.6316V25.0716V23.5023V21.9376V20.3683V18.8037H10.0678V17.2344V15.6697H11.7489V14.1051V12.5358H10.0678V14.1051H8.39136V15.6697V17.2344H6.71497V18.8037V20.3683V21.9376V23.5023V25.0716V26.6316V28.2009V29.7702H8.39136V31.3348V32.9041H10.0678V34.4688H11.7489V32.9041V31.3348Z" fill="#1D1D1B"/>
<path d="M3.35751 14.1051V12.5358H1.67645V14.1051V15.6697H3.35751V14.1051Z" fill="#1D1D1B"/>
<path d="M13.4253 10.9712H11.7489V12.5405H13.4253V10.9712Z" fill="#1D1D1B"/>
<path d="M5.0386 10.9712V9.40186H3.35754V10.9712V12.5358H5.0386V10.9712Z" fill="#1D1D1B"/>
<path d="M16.7781 10.9711V9.40176H18.4591H20.1402H21.812H23.4931H25.1695H26.8505V10.9711H28.5269H30.2034V9.40176H28.5269V7.83246H26.8505H25.1695H23.4931H21.812H20.1402H18.4591H16.7781H15.1017V9.40176H13.4253V10.9711H15.1017H16.7781Z" fill="#1D1D1B"/>
<path d="M6.71497 7.83246H5.03857V9.40176H6.71497V7.83246Z" fill="#1D1D1B"/>
<path d="M8.39603 6.26788H6.71497V7.83719H8.39603V6.26788Z" fill="#1D1D1B"/>
<path d="M10.0678 4.70319H8.39136V6.26784H10.0678V4.70319Z" fill="#1D1D1B"/>
<path d="M11.7489 3.13861H10.0677V4.70791H11.7489V3.13861Z" fill="#1D1D1B"/>
<path d="M15.1017 3.13859V1.56927H13.4253H11.7489V3.13859H13.4253H15.1017Z" fill="#1D1D1B"/>
<path d="M18.4591 1.5693H20.1402H21.812H23.4931H25.1695H26.8505H28.5269V0H26.8505H25.1695H23.4931H21.812H20.1402H18.4591H16.7781H15.1017V1.5693H16.7781H18.4591Z" fill="#1D1D1B"/>
<path d="M45.305 12.5358H43.6286V14.1051H41.9522V15.6697V17.2344H43.6286V15.6697H45.305H46.9814V14.1051V12.5358H45.305Z" fill="white"/>
<path d="M43.6286 7.83246H41.9522H40.2711H38.5947V9.40176H40.2711V10.9711H41.9522V9.40176H43.6286H45.305V7.83246H43.6286Z" fill="white"/>
<path d="M23.4931 36.0335H21.812H20.1402H18.4592V34.4688H16.7781H15.1017V32.9042H13.4253V31.3349H11.7489V32.9042V34.4688H13.4253V36.0335H15.1017H16.7781V37.6028H18.4592H20.1402H21.812H23.4931H25.1695H26.8505V36.0335H25.1695H23.4931Z" fill="white"/>
<path d="M26.8505 34.4689V36.0335H28.5269H30.2034V34.4689H28.5269H26.8505Z" fill="white"/>
<path d="M31.8798 32.9042H30.2034V34.4735H31.8798V32.9042Z" fill="white"/>
<path d="M11.7489 28.201H10.0677V29.7703V31.3349H11.7489V29.7703V28.201Z" fill="white"/>
<path d="M10.0678 25.0716V23.5023V21.9376H8.39136V23.5023V25.0716V26.6316V28.2009H10.0678V26.6316V25.0716Z" fill="white"/>
<path d="M10.0678 18.8036H8.39136V20.373H10.0678V18.8036Z" fill="white"/>
<path d="M41.9522 40.7368H40.2711V42.3061H41.9522V40.7368Z" fill="#F2A317"/>
<path d="M43.6286 36.0334H41.9522V37.6028H43.6286V36.0334Z" fill="#F2A317"/>
<path d="M10.0678 20.3683H8.39136V21.9377H10.0678V20.3683Z" fill="#FAF1CE"/>
<path d="M48.6625 15.6697H46.9814H45.305H43.6286V17.2344V18.8037V20.3683V21.9376V23.5023V25.0716V26.6316V28.2009V29.7702V31.3349V32.9042H41.9522V34.4688V36.0335H43.6286V37.6028H41.9522V36.0335H40.2711V37.6028H38.5947V39.1674H36.9183V40.7367V42.3014H35.2372H33.5608V43.8707H31.8798V45.4353H30.2034H28.5269V47H30.2034H31.8798H33.5608H35.2372V45.4353H36.9183H38.5947V43.8707H40.2711V42.3014V40.7367H41.9522V42.3014H43.6286V40.7367V39.1674H45.305V37.6028H46.9814V36.0335V34.4688H48.6625V32.9042V31.3349H50.3436V29.7702V28.2009V26.6316V25.0716V23.5023V21.9376V20.3683V18.8037V17.2344V15.6697H48.6625Z" fill="#F2A317"/>
<path d="M31.8798 45.3981V45.4353H28.5269V47H35.2372V45.4353H38.5947V45.3981H31.8798Z" fill="#1D1D1B"/>
<path d="M41.9522 10.9712H40.2711V12.5405H41.9522V10.9712Z" fill="white"/>
<path d="M40.2711 15.6697V10.9711H38.5946V9.40184H36.9183V7.83253H35.2372V6.26788H33.5608V4.70323H31.8658V3.13859H28.513V1.56927H15.1017V3.13859H11.7489V4.70323H10.0677V6.26788H8.39135V7.83253H6.71961V9.40184H5.04321V12.5451H3.36215V15.6791H1.68109V31.3442H3.36215V34.4781H5.04321V37.6121H6.71961V39.1767H8.39601V40.746H10.0724V42.3107H11.7535V43.88H15.1063V45.4446H28.5315V43.88H31.8844V42.3014H33.5655V40.7367H35.2419V39.1674H36.9229V37.6028H38.5993V36.0335H40.2758V32.9042H41.9568V15.6744L40.2711 15.6697ZM8.39135 17.2344V14.1051H10.0677V12.5451H11.7489V10.9805H13.4253V9.41115H15.1017V7.84184H28.5269V9.41115H30.2033V10.9805H31.8797V12.5451H33.5608V14.1144H35.2372V17.2437H36.9183V29.7749H35.2372V32.9088H33.5608V34.4735H31.8658V36.0381H30.1894V37.6074H28.513V39.1721H15.1017V37.6074H13.4253V36.0381H11.7489V34.4735H10.0677V32.9088H8.39135V29.7749H6.71961V17.2344H8.39135Z" fill="#FDCD00"/>
<path d="M11.7489 15.6698H10.0677V17.2344V18.8037V20.3684V21.9377V23.5023V25.0716V26.6316V28.2009H11.7489V29.7702V31.3349H13.4253V32.9042H15.1017V34.4688H16.7781H18.4591V36.0335H20.1402H21.812H23.493H25.1694H26.8505V34.4688H28.5269H30.2033V32.9042H31.8797V31.3349H33.5608V29.7702V28.2009H35.2372V26.6316V25.0716V23.5023V21.9377V20.3684V18.8037H33.5608V17.2344V15.6698V14.1051H31.8797V12.5358H30.2033V10.9712H28.5269H26.8505V9.40186H25.1694H23.493H21.812H20.1402H18.4591H16.7781V10.9712H15.1017H13.4253V12.5358H11.7489V14.1051V15.6698Z" fill="#FDCD00"/>
<path d="M46.9814 10.9711V9.40176V7.83246H45.305V9.40176H43.6286H41.9522V10.9711V12.5357V14.105H43.6286V12.5357H45.305H46.9814V14.105V15.6697H48.6625V14.105V12.5357V10.9711H46.9814Z" fill="#F2A317"/>
<path d="M43.6286 6.26791V4.70326H41.9522H40.2711V3.13861H38.5947V1.5693H36.9183H35.2372V0H33.5608H31.8798H30.2034H28.5269V1.5693H30.2034H31.8798V3.13861H33.5608V4.70326H35.2372V6.26791H36.9183V7.83256H38.5947H40.2711H41.9522H43.6286H45.305V6.26791H43.6286Z" fill="#F2A317"/>
<path d="M46.9814 10.9711V9.40176V7.83246H45.305V9.40176H43.6286H41.9522V10.9711V12.5357V14.105H43.6286V12.5357H45.305H46.9814V14.105V15.6697H48.6625V14.105V12.5357V10.9711H46.9814Z" fill="#F2A317"/>
<path d="M46.9814 10.9711V9.40176V7.83246H45.305V9.40176V10.9711H46.9814V12.5357V14.105V15.6697H48.6625V14.105V12.5357V10.9711H46.9814Z" fill="#1D1D1B"/>
<path d="M40.2711 3.13861H38.5947V4.70791H40.2711V3.13861Z" fill="#1D1D1B"/>
<path d="M40.2711 6.26784H41.9522H43.6286V4.70319H41.9522H40.2711V6.26784Z" fill="#1D1D1B"/>
<path d="M36.9183 3.13859H38.5947V1.56927H36.9183H35.2372V3.13859H36.9183Z" fill="#1D1D1B"/>
<path d="M45.3097 6.26788H43.6286V7.83719H45.3097V6.26788Z" fill="#1D1D1B"/>
<path d="M30.2034 1.5693H31.8798H33.5608H35.2372V0H33.5608H31.8798H30.2034H28.5269V1.5693H30.2034Z" fill="#1D1D1B"/>
<path d="M41.9522 36.0334H40.2711V37.6028H41.9522V36.0334Z" fill="#1D1D1B"/>
<path d="M48.6624 15.6697H46.9814H48.6624V17.2344V18.8037V20.3683V21.9376V23.5023V25.0716V26.6316V28.2009V29.7702V31.3349H50.3436V29.7702V28.2009V26.6316V25.0716V23.5023V21.9376V20.3683V18.8037V17.2344V15.6697H48.6624Z" fill="#1D1D1B"/>
<path d="M41.9522 39.1674V40.7367V42.3013H43.6286V40.7367V39.1674H41.9522Z" fill="#1D1D1B"/>
<path d="M45.3097 37.6028H43.6286V39.1721H45.3097V37.6028Z" fill="#1D1D1B"/>
<path d="M46.9814 31.3349V32.9042V34.4688H45.305V36.0335V37.6028H46.9814V36.0335V34.4688H48.6625V32.9042V31.3349H46.9814Z" fill="#1D1D1B"/>
<path d="M35.2372 45.4353H33.5608V46.9999H35.2372V45.4353Z" fill="#1D1D1B"/>
<path d="M40.2711 42.3014V40.7368H38.5947V42.3014V43.8707H40.2711V42.3014Z" fill="#1D1D1B"/>
<path d="M38.5993 43.8707H36.9183V45.44H38.5993V43.8707Z" fill="#1D1D1B"/>
<path d="M28.5269 43.8707V45.4353H26.8505H25.1695H23.4931H21.812H20.1402H18.4591H16.7781H15.1017V47H16.7781H18.4591H20.1402H21.812H23.4931H25.1695H26.8505H28.5269V45.4353H30.2034H31.8798V43.8707H30.2034H28.5269Z" fill="#1D1D1B"/>
<path d="M33.5608 42.3013H31.8798V43.8706H33.5608V42.3013Z" fill="#1D1D1B"/>
<path d="M35.2372 40.7367H33.5608V42.3013H35.2372H36.9182V40.7367V39.1674H35.2372V40.7367Z" fill="#1D1D1B"/>
<path d="M38.5993 37.6028H36.9183V39.1721H38.5993V37.6028Z" fill="#1D1D1B"/>
<path d="M40.2711 36.0334H38.5947V37.6028H40.2711V36.0334Z" fill="#1D1D1B"/>
<path d="M40.2711 34.4688V36.0335H41.9522V34.4688V32.9042H40.2711V34.4688Z" fill="#1D1D1B"/>
<path d="M41.9522 17.2344V18.8037V20.3684V21.9377V23.5023V25.0716V26.6316V28.2009V29.7703V31.3349V32.9042H43.6286V31.3349V29.7703V28.2009V26.6316V25.0716V23.5023V21.9377V20.3684V18.8037V17.2344H41.9522Z" fill="#1D1D1B"/>
<path d="M40.2711 14.1051V15.6697H41.9522V14.1051V12.5358H40.2711V14.1051Z" fill="#1D1D1B"/>
<path d="M40.2711 9.40186H38.5947V10.9712H40.2711V9.40186Z" fill="#1D1D1B"/>
<path d="M31.8798 34.4689H30.2034V36.0335H31.8798V34.4689Z" fill="#1D1D1B"/>
<path d="M33.5608 17.2345V18.8038H35.2372V20.3684V21.9377V23.5024V25.0717V26.6317V28.201H33.5608V29.7703V31.3349H31.8798V32.9042V34.4689H33.5608V32.9042H35.2372V31.3349V29.7703H36.9183V28.201V26.6317V25.0717V23.5024V21.9377V20.3684V18.8038V17.2345H35.2372V15.6698V14.1052H33.5608V15.6698V17.2345Z" fill="#1D1D1B"/>
<path d="M33.5608 12.5358H31.8798V14.1051H33.5608V12.5358Z" fill="#1D1D1B"/>
<path d="M31.8798 10.9712H30.2034V12.5405H31.8798V10.9712Z" fill="#1D1D1B"/>
<path d="M38.5993 7.83246H36.9183V9.40176H38.5993V7.83246Z" fill="#1D1D1B"/>
<path d="M36.9183 6.26788H35.2372V7.83719H36.9183V6.26788Z" fill="#1D1D1B"/>
<path d="M35.2372 4.70319H33.5608V6.26784H35.2372V4.70319Z" fill="#1D1D1B"/>
<path d="M33.5608 3.13861H31.8798V4.70791H33.5608V3.13861Z" fill="#1D1D1B"/>
<path d="M28.5269 3.13859H30.2034H31.8798V1.56927H30.2034H28.5269V3.13859Z" fill="#1D1D1B"/>
<path d="M13.4253 43.8707H11.7489V45.4353H13.4253H15.1017V43.8707H13.4253Z" fill="#1D1D1B"/>
<path d="M11.7489 42.3013H10.0677V43.8706H11.7489V42.3013Z" fill="#1D1D1B"/>
<path d="M8.39136 40.7367V39.1674H6.71497V40.7367V42.3013H8.39136H10.0678V40.7367H8.39136Z" fill="#1D1D1B"/>
<path d="M6.71497 37.6028H5.03857V39.1721H6.71497V37.6028Z" fill="#1D1D1B"/>
<path d="M16.7781 39.1674H18.4591H20.1402H21.812H23.4931H25.1695H26.8505H28.5269V37.6028H30.2034V36.0334H28.5269H26.8505V37.6028H25.1695H23.4931H21.812H20.1402H18.4591H16.7781V36.0334H15.1017H13.4253V37.6028H15.1017V39.1674H16.7781Z" fill="#1D1D1B"/>
<path d="M13.4253 34.4689H11.7489V36.0335H13.4253V34.4689Z" fill="#1D1D1B"/>
<path d="M5.0386 34.4689H3.35754V36.0335V37.6028H5.0386V36.0335V34.4689Z" fill="#1D1D1B"/>
<path d="M3.35751 31.3349H1.67645V32.9042V34.4688H3.35751V32.9042V31.3349Z" fill="#1D1D1B"/>
<path d="M1.67645 28.2009V26.6316V25.0716V23.5023V21.9377V20.3684V18.8037V17.2344H0V18.8037V20.3684V21.9377V23.5023V25.0716V26.6316V28.2009V29.7703H1.67645V28.2009Z" fill="#1D1D1B"/>
<path d="M11.7489 31.3348H10.0678V29.7702V28.2009H8.39136V26.6316V25.0716V23.5023V21.9376V20.3683V18.8037H10.0678V17.2344V15.6697H11.7489V14.1051V12.5358H10.0678V14.1051H8.39136V15.6697V17.2344H6.71497V18.8037V20.3683V21.9376V23.5023V25.0716V26.6316V28.2009V29.7702H8.39136V31.3348V32.9041H10.0678V34.4688H11.7489V32.9041V31.3348Z" fill="#1D1D1B"/>
<path d="M3.35751 14.1051V12.5358H1.67645V14.1051V15.6697H3.35751V14.1051Z" fill="#1D1D1B"/>
<path d="M13.4253 10.9712H11.7489V12.5405H13.4253V10.9712Z" fill="#1D1D1B"/>
<path d="M5.0386 10.9712V9.40186H3.35754V10.9712V12.5358H5.0386V10.9712Z" fill="#1D1D1B"/>
<path d="M16.7781 10.9711V9.40176H18.4591H20.1402H21.812H23.4931H25.1695H26.8505V10.9711H28.5269H30.2034V9.40176H28.5269V7.83246H26.8505H25.1695H23.4931H21.812H20.1402H18.4591H16.7781H15.1017V9.40176H13.4253V10.9711H15.1017H16.7781Z" fill="#1D1D1B"/>
<path d="M6.71497 7.83246H5.03857V9.40176H6.71497V7.83246Z" fill="#1D1D1B"/>
<path d="M8.39603 6.26788H6.71497V7.83719H8.39603V6.26788Z" fill="#1D1D1B"/>
<path d="M10.0678 4.70319H8.39136V6.26784H10.0678V4.70319Z" fill="#1D1D1B"/>
<path d="M11.7489 3.13861H10.0677V4.70791H11.7489V3.13861Z" fill="#1D1D1B"/>
<path d="M15.1017 3.13859V1.56927H13.4253H11.7489V3.13859H13.4253H15.1017Z" fill="#1D1D1B"/>
<path d="M18.4591 1.5693H20.1402H21.812H23.4931H25.1695H26.8505H28.5269V0H26.8505H25.1695H23.4931H21.812H20.1402H18.4591H16.7781H15.1017V1.5693H16.7781H18.4591Z" fill="#1D1D1B"/>
<path d="M45.305 12.5358H43.6286V14.1051H41.9522V15.6697V17.2344H43.6286V15.6697H45.305H46.9814V14.1051V12.5358H45.305Z" fill="white"/>
<path d="M43.6286 7.83246H41.9522H40.2711H38.5947V9.40176H40.2711V10.9711H41.9522V9.40176H43.6286H45.305V7.83246H43.6286Z" fill="white"/>
<path d="M23.4931 36.0335H21.812H20.1402H18.4592V34.4688H16.7781H15.1017V32.9042H13.4253V31.3349H11.7489V32.9042V34.4688H13.4253V36.0335H15.1017H16.7781V37.6028H18.4592H20.1402H21.812H23.4931H25.1695H26.8505V36.0335H25.1695H23.4931Z" fill="white"/>
<path d="M26.8505 34.4689V36.0335H28.5269H30.2034V34.4689H28.5269H26.8505Z" fill="white"/>
<path d="M31.8798 32.9042H30.2034V34.4735H31.8798V32.9042Z" fill="white"/>
<path d="M11.7489 28.201H10.0677V29.7703V31.3349H11.7489V29.7703V28.201Z" fill="white"/>
<path d="M10.0678 25.0716V23.5023V21.9376H8.39136V23.5023V25.0716V26.6316V28.2009H10.0678V26.6316V25.0716Z" fill="white"/>
<path d="M10.0678 18.8036H8.39136V20.373H10.0678V18.8036Z" fill="white"/>
</svg>
