<svg width="269" height="116" viewBox="0 0 269 116" fill="none" xmlns="http://www.w3.org/2000/svg">
<path fill-rule="evenodd" clip-rule="evenodd" d="M0 23.6106V92.3894H6.72508V102.655H17.4851V107.788H30.9352V116H239.41V110.867H251.515V102.655H260.93V91.3629H269L269 23.6106H262.275V13.3451H251.515V8.21232H238.065V0H29.5901V8.21232H16.14V13.3451H5.38001V23.6106H0ZM0 116V105.734H9.44138e-05V116L0 116Z" fill="white"/>
<path fill-rule="evenodd" clip-rule="evenodd" d="M3.93066 24V91H10.4818V101H20.9635V106H34.0656V114H237.149V109H248.941V101H258.112V90H265.974L265.974 24H259.423V14H248.941V9H235.839V1H32.7554V9H19.6533V14H9.17156V24H3.93066ZM3.93066 114V104H3.93073V114H3.93066Z" fill="#402F5C"/>
<path d="M109.392 50.4H89.792V70H95.392V61.6H106.592V58.8H95.392V53.2H109.392V50.4ZM132.58 53.2H129.78V50.4H115.78V53.2H112.98V67.2H115.78V70H129.78V67.2H132.58V53.2ZM118.579 67.2V53.2H126.98V67.2H118.579ZM155.767 67.2H141.767V50.4H136.167V70H155.767V67.2ZM178.955 56H176.155V53.2H173.355V50.4H159.355V70H173.355V67.2H176.155V64.4H178.955V56ZM170.555 64.4V67.2H164.954V53.2H170.555V56H173.355V64.4H170.555Z" fill="white"/>
<path d="M109.392 50.4H110.392V49.4H109.392V50.4ZM89.792 50.4V49.4H88.792V50.4H89.792ZM89.792 70H88.792V71H89.792V70ZM95.392 70V71H96.392V70H95.392ZM95.392 61.6V60.6H94.392V61.6H95.392ZM106.592 61.6V62.6H107.592V61.6H106.592ZM106.592 58.8H107.592V57.8H106.592V58.8ZM95.392 58.8H94.392V59.8H95.392V58.8ZM95.392 53.2V52.2H94.392V53.2H95.392ZM109.392 53.2V54.2H110.392V53.2H109.392ZM109.392 49.4H89.792V51.4H109.392V49.4ZM88.792 50.4V70H90.792V50.4H88.792ZM89.792 71H95.392V69H89.792V71ZM96.392 70V61.6H94.392V70H96.392ZM95.392 62.6H106.592V60.6H95.392V62.6ZM107.592 61.6V58.8H105.592V61.6H107.592ZM106.592 57.8H95.392V59.8H106.592V57.8ZM96.392 58.8V53.2H94.392V58.8H96.392ZM95.392 54.2H109.392V52.2H95.392V54.2ZM110.392 53.2V50.4H108.392V53.2H110.392ZM132.58 53.2H133.58V52.2H132.58V53.2ZM129.78 53.2H128.78V54.2H129.78V53.2ZM129.78 50.4H130.78V49.4H129.78V50.4ZM115.78 50.4V49.4H114.78V50.4H115.78ZM115.78 53.2V54.2H116.78V53.2H115.78ZM112.979 53.2V52.2H111.979V53.2H112.979ZM112.979 67.2H111.979V68.2H112.979V67.2ZM115.78 67.2H116.78V66.2H115.78V67.2ZM115.78 70H114.78V71H115.78V70ZM129.78 70V71H130.78V70H129.78ZM129.78 67.2V66.2H128.78V67.2H129.78ZM132.58 67.2V68.2H133.58V67.2H132.58ZM118.58 67.2H117.58V68.2H118.58V67.2ZM118.58 53.2V52.2H117.58V53.2H118.58ZM126.979 53.2H127.979V52.2H126.979V53.2ZM126.979 67.2V68.2H127.979V67.2H126.979ZM132.58 52.2H129.78V54.2H132.58V52.2ZM130.78 53.2V50.4H128.78V53.2H130.78ZM129.78 49.4H115.78V51.4H129.78V49.4ZM114.78 50.4V53.2H116.78V50.4H114.78ZM115.78 52.2H112.979V54.2H115.78V52.2ZM111.979 53.2V67.2H113.979V53.2H111.979ZM112.979 68.2H115.78V66.2H112.979V68.2ZM114.78 67.2V70H116.78V67.2H114.78ZM115.78 71H129.78V69H115.78V71ZM130.78 70V67.2H128.78V70H130.78ZM129.78 68.2H132.58V66.2H129.78V68.2ZM133.58 67.2V53.2H131.58V67.2H133.58ZM119.58 67.2V53.2H117.58V67.2H119.58ZM118.58 54.2H126.979V52.2H118.58V54.2ZM125.979 53.2V67.2H127.979V53.2H125.979ZM126.979 66.2H118.58V68.2H126.979V66.2ZM155.767 67.2H156.767V66.2H155.767V67.2ZM141.767 67.2H140.767V68.2H141.767V67.2ZM141.767 50.4H142.767V49.4H141.767V50.4ZM136.167 50.4V49.4H135.167V50.4H136.167ZM136.167 70H135.167V71H136.167V70ZM155.767 70V71H156.767V70H155.767ZM155.767 66.2H141.767V68.2H155.767V66.2ZM142.767 67.2V50.4H140.767V67.2H142.767ZM141.767 49.4H136.167V51.4H141.767V49.4ZM135.167 50.4V70H137.167V50.4H135.167ZM136.167 71H155.767V69H136.167V71ZM156.767 70V67.2H154.767V70H156.767ZM178.954 56H179.954V55H178.954V56ZM176.155 56H175.155V57H176.155V56ZM176.155 53.2H177.155V52.2H176.155V53.2ZM173.354 53.2H172.354V54.2H173.354V53.2ZM173.354 50.4H174.354V49.4H173.354V50.4ZM159.354 50.4V49.4H158.354V50.4H159.354ZM159.354 70H158.354V71H159.354V70ZM173.354 70V71H174.354V70H173.354ZM173.354 67.2V66.2H172.354V67.2H173.354ZM176.155 67.2V68.2H177.155V67.2H176.155ZM176.155 64.4V63.4H175.155V64.4H176.155ZM178.954 64.4V65.4H179.954V64.4H178.954ZM170.554 64.4V63.4H169.554V64.4H170.554ZM170.554 67.2V68.2H171.554V67.2H170.554ZM164.954 67.2H163.954V68.2H164.954V67.2ZM164.954 53.2V52.2H163.954V53.2H164.954ZM170.554 53.2H171.554V52.2H170.554V53.2ZM170.554 56H169.554V57H170.554V56ZM173.354 56H174.354V55H173.354V56ZM173.354 64.4V65.4H174.354V64.4H173.354ZM178.954 55H176.155V57H178.954V55ZM177.155 56V53.2H175.155V56H177.155ZM176.155 52.2H173.354V54.2H176.155V52.2ZM174.354 53.2V50.4H172.354V53.2H174.354ZM173.354 49.4H159.354V51.4H173.354V49.4ZM158.354 50.4V70H160.354V50.4H158.354ZM159.354 71H173.354V69H159.354V71ZM174.354 70V67.2H172.354V70H174.354ZM173.354 68.2H176.155V66.2H173.354V68.2ZM177.155 67.2V64.4H175.155V67.2H177.155ZM176.155 65.4H178.954V63.4H176.155V65.4ZM179.954 64.4V56H177.954V64.4H179.954ZM169.554 64.4V67.2H171.554V64.4H169.554ZM170.554 66.2H164.954V68.2H170.554V66.2ZM165.954 67.2V53.2H163.954V67.2H165.954ZM164.954 54.2H170.554V52.2H164.954V54.2ZM169.554 53.2V56H171.554V53.2H169.554ZM170.554 57H173.354V55H170.554V57ZM172.354 56V64.4H174.354V56H172.354ZM173.354 63.4H170.554V65.4H173.354V63.4Z" fill="black"/>
<mask id="mask0_269_56" style="mask-type:alpha" maskUnits="userSpaceOnUse" x="89" y="50" width="90" height="20">
<path d="M109.392 50.4H89.792V70H95.392V61.6H106.592V58.8H95.392V53.2H109.392V50.4ZM132.58 53.2H129.78V50.4H115.78V53.2H112.98V67.2H115.78V70H129.78V67.2H132.58V53.2ZM118.579 67.2V53.2H126.98V67.2H118.579ZM155.767 67.2H141.767V50.4H136.167V70H155.767V67.2ZM178.955 56H176.155V53.2H173.355V50.4H159.355V70H173.355V67.2H176.155V64.4H178.955V56ZM170.555 64.4V67.2H164.954V53.2H170.555V56H173.355V64.4H170.555Z" fill="white"/>
</mask>
<g mask="url(#mask0_269_56)">
<rect x="83.6035" y="60" width="106.394" height="10" fill="#EB9BD5"/>
</g>
</svg>
