<svg viewBox="0 0 1469 920" preserveAspectRatio="none" xml:space="preserve" xmlns="http://www.w3.org/2000/svg">
<mask id="path-1-inside-1_269_160" fill="white">
<path fill-rule="evenodd" clip-rule="evenodd" d="M67.6268 0H1401.37V42.6716H1423.92V81.9295H1446.46V121.187H1469V798.813H1448.96V838.07H1426.42V877.328H1403.88V920H68.8793V880.742H46.3371V841.484H23.7947V802.226H0V121.187H22.5421V81.9295H45.0844V42.6716H67.6268V0Z"/>
</mask>
<path fill-rule="evenodd" clip-rule="evenodd" d="M67.6268 0H1401.37V42.6716H1423.92V81.9295H1446.46V121.187H1469V798.813H1448.96V838.07H1426.42V877.328H1403.88V920H68.8793V880.742H46.3371V841.484H23.7947V802.226H0V121.187H22.5421V81.9295H45.0844V42.6716H67.6268V0Z" fill="#1A1E53"/>
<path d="M1401.37 0H1402.37V-1H1401.37V0ZM67.6268 0V-1H66.6268V0H67.6268ZM1401.37 42.6716H1400.37V43.6716H1401.37V42.6716ZM1423.92 42.6716H1424.92V41.6716H1423.92V42.6716ZM1423.92 81.9295H1422.92V82.9295H1423.92V81.9295ZM1446.46 81.9295H1447.46V80.9295H1446.46V81.9295ZM1446.46 121.187H1445.46V122.187H1446.46V121.187ZM1469 121.187H1470V120.187H1469V121.187ZM1469 798.813V799.813H1470V798.813H1469ZM1448.96 798.813V797.813H1447.96V798.813H1448.96ZM1448.96 838.07V839.07H1449.96V838.07H1448.96ZM1426.42 838.07V837.07H1425.42V838.07H1426.42ZM1426.42 877.328V878.328H1427.42V877.328H1426.42ZM1403.88 877.328V876.328H1402.88V877.328H1403.88ZM1403.88 920V921H1404.88V920H1403.88ZM68.8793 920H67.8793V921H68.8793V920ZM68.8793 880.742H69.8793V879.742H68.8793V880.742ZM46.3371 880.742H45.3371V881.742H46.3371V880.742ZM46.3371 841.484H47.3371V840.484H46.3371V841.484ZM23.7947 841.484H22.7947V842.484H23.7947V841.484ZM23.7947 802.226H24.7947V801.226H23.7947V802.226ZM0 802.226H-1V803.226H0V802.226ZM0 121.187V120.187H-1V121.187H0ZM22.5421 121.187V122.187H23.5421V121.187H22.5421ZM22.5421 81.9295V80.9295H21.5421V81.9295H22.5421ZM45.0844 81.9295V82.9295H46.0844V81.9295H45.0844ZM45.0844 42.6716V41.6716H44.0844V42.6716H45.0844ZM67.6268 42.6716V43.6716H68.6268V42.6716H67.6268ZM1401.37 -1H67.6268V1H1401.37V-1ZM1402.37 42.6716V0H1400.37V42.6716H1402.37ZM1423.92 41.6716H1401.37V43.6716H1423.92V41.6716ZM1424.92 81.9295V42.6716H1422.92V81.9295H1424.92ZM1446.46 80.9295H1423.92V82.9295H1446.46V80.9295ZM1447.46 121.187V81.9295H1445.46V121.187H1447.46ZM1469 120.187H1446.46V122.187H1469V120.187ZM1470 798.813V121.187H1468V798.813H1470ZM1448.96 799.813H1469V797.813H1448.96V799.813ZM1449.96 838.07V798.813H1447.96V838.07H1449.96ZM1426.42 839.07H1448.96V837.07H1426.42V839.07ZM1427.42 877.328V838.07H1425.42V877.328H1427.42ZM1403.88 878.328H1426.42V876.328H1403.88V878.328ZM1404.88 920V877.328H1402.88V920H1404.88ZM68.8793 921H1403.88V919H68.8793V921ZM67.8793 880.742V920H69.8793V880.742H67.8793ZM46.3371 881.742H68.8793V879.742H46.3371V881.742ZM45.3371 841.484V880.742H47.3371V841.484H45.3371ZM23.7947 842.484H46.3371V840.484H23.7947V842.484ZM22.7947 802.226V841.484H24.7947V802.226H22.7947ZM0 803.226H23.7947V801.226H0V803.226ZM-1 121.187V802.226H1V121.187H-1ZM22.5421 120.187H0V122.187H22.5421V120.187ZM21.5421 81.9295V121.187H23.5421V81.9295H21.5421ZM45.0844 80.9295H22.5421V82.9295H45.0844V80.9295ZM44.0844 42.6716V81.9295H46.0844V42.6716H44.0844ZM67.6268 41.6716H45.0844V43.6716H67.6268V41.6716ZM66.6268 0V42.6716H68.6268V0H66.6268Z" fill="black" mask="url(#path-1-inside-1_269_160)"/>
<mask id="path-3-inside-2_269_160" fill="white">
<path fill-rule="evenodd" clip-rule="evenodd" d="M87.014 12.941H1383.24V54.4121H1405.15V92.5656H1427.05V130.719H1448.96V789.281H1429.49V827.434H1407.58V865.587H1385.67V907.059H88.2307V868.905H66.3738V831.243H44.4147V792.599H21.29V130.719H43.1977V92.5656H65.106V54.4121H87.014V12.941Z"/>
</mask>
<path fill-rule="evenodd" clip-rule="evenodd" d="M87.014 12.941H1383.24V54.4121H1405.15V92.5656H1427.05V130.719H1448.96V789.281H1429.49V827.434H1407.58V865.587H1385.67V907.059H88.2307V868.905H66.3738V831.243H44.4147V792.599H21.29V130.719H43.1977V92.5656H65.106V54.4121H87.014V12.941Z" fill="#402F5C"/>
<path d="M1383.24 12.941H1386.24V9.94098H1383.24V12.941ZM87.014 12.941V9.94098H84.014V12.941H87.014ZM1383.24 54.4121H1380.24V57.4121H1383.24V54.4121ZM1405.15 54.4121H1408.15V51.4121H1405.15V54.4121ZM1405.15 92.5656H1402.15V95.5656H1405.15V92.5656ZM1427.05 92.5656H1430.05V89.5656H1427.05V92.5656ZM1427.05 130.719H1424.05V133.719H1427.05V130.719ZM1448.96 130.719H1451.96V127.719H1448.96V130.719ZM1448.96 789.281V792.281H1451.96V789.281H1448.96ZM1429.49 789.281V786.281H1426.49V789.281H1429.49ZM1429.49 827.434V830.434H1432.49V827.434H1429.49ZM1407.58 827.434V824.434H1404.58V827.434H1407.58ZM1407.58 865.587V868.587H1410.58V865.587H1407.58ZM1385.67 865.587V862.587H1382.67V865.587H1385.67ZM1385.67 907.059V910.059H1388.67V907.059H1385.67ZM88.2307 907.059H85.2307V910.059H88.2307V907.059ZM88.2307 868.905H91.2307V865.905H88.2307V868.905ZM66.3738 868.905H63.3738V871.905H66.3738V868.905ZM66.3738 831.243H69.3738V828.243H66.3738V831.243ZM44.4147 831.243H41.4147V834.243H44.4147V831.243ZM44.4147 792.599H47.4147V789.599H44.4147V792.599ZM21.29 792.599H18.29V795.599H21.29V792.599ZM21.29 130.719V127.719H18.29V130.719H21.29ZM43.1977 130.719V133.719H46.1977V130.719H43.1977ZM43.1977 92.5656V89.5656H40.1977V92.5656H43.1977ZM65.106 92.5656V95.5656H68.106V92.5656H65.106ZM65.106 54.4121V51.4121H62.106V54.4121H65.106ZM87.014 54.4121V57.4121H90.014V54.4121H87.014ZM1383.24 9.94098H87.014V15.941H1383.24V9.94098ZM1386.24 54.4121V12.941H1380.24V54.4121H1386.24ZM1405.15 51.4121H1383.24V57.4121H1405.15V51.4121ZM1408.15 92.5656V54.4121H1402.15V92.5656H1408.15ZM1427.05 89.5656H1405.15V95.5656H1427.05V89.5656ZM1430.05 130.719V92.5656H1424.05V130.719H1430.05ZM1448.96 127.719H1427.05V133.719H1448.96V127.719ZM1451.96 789.281V130.719H1445.96V789.281H1451.96ZM1429.49 792.281H1448.96V786.281H1429.49V792.281ZM1432.49 827.434V789.281H1426.49V827.434H1432.49ZM1407.58 830.434H1429.49V824.434H1407.58V830.434ZM1410.58 865.587V827.434H1404.58V865.587H1410.58ZM1385.67 868.587H1407.58V862.587H1385.67V868.587ZM1388.67 907.059V865.587H1382.67V907.059H1388.67ZM88.2307 910.059H1385.67V904.059H88.2307V910.059ZM85.2307 868.905V907.059H91.2307V868.905H85.2307ZM66.3738 871.905H88.2307V865.905H66.3738V871.905ZM63.3738 831.243V868.905H69.3738V831.243H63.3738ZM44.4147 834.243H66.3738V828.243H44.4147V834.243ZM41.4147 792.599V831.243H47.4147V792.599H41.4147ZM21.29 795.599H44.4147V789.599H21.29V795.599ZM18.29 130.719V792.599H24.29V130.719H18.29ZM43.1977 127.719H21.29V133.719H43.1977V127.719ZM40.1977 92.5656V130.719H46.1977V92.5656H40.1977ZM65.106 89.5656H43.1977V95.5656H65.106V89.5656ZM62.106 54.4121V92.5656H68.106V54.4121H62.106ZM87.014 51.4121H65.106V57.4121H87.014V51.4121ZM84.014 12.941V54.4121H90.014V12.941H84.014Z" fill="white" mask="url(#path-3-inside-2_269_160)"/>
</svg>
