<svg width="1641" height="728" viewBox="0 0 1641 728" fill="none" xmlns="http://www.w3.org/2000/svg">
<path d="M503 207.5C503 206.214 503.352 204.958 504.011 203.889C504.67 202.82 505.608 201.987 506.704 201.495C507.8 201.003 509.007 200.874 510.171 201.125C511.334 201.376 512.404 201.995 513.243 202.904C514.082 203.813 514.653 204.971 514.885 206.232C515.116 207.493 514.997 208.8 514.543 209.987C514.089 211.175 513.32 212.19 512.333 212.905C511.347 213.619 510.187 214 509 214C507.409 214 505.883 213.315 504.757 212.096C503.632 210.877 503 209.224 503 207.5Z" fill="#B997CC"/>
<path d="M421 578.358L421.97 602.888H425.353L425.813 612.489H431.372L431.819 617.818H450.088L450.772 623.16H439.343L439.94 625.651H456.94L458.892 638.8H429.419L427.579 653.02H440.201V656.93H427.156L423.176 686.815H448.359L449.528 692.331H451.816L453.694 701.06H462.661V707.025H446.332L442.601 732.489L508.189 733L506.746 720.174H513.511L514.867 713.425H494.609L493.178 702.405H482.198L481.451 692.082H529.79L530.922 680.004H543.233L537.227 637.331H502.742L503.264 623.11H554.077L555.582 607.458H536.182L532.725 584.708H518.946L519.941 528.761H539.415L540.659 508.14H551.255L551.889 497.706H547.238L547.586 490.832H557L555.669 471.208H524.206L523.336 448.209H507.169L506.647 405.872L506.124 448.209H503.239L502.717 379L502.195 448.209H494.223L493.353 471.208H488.229L486.836 490.882H497.643L498.004 497.755H493.353L493.974 508.19H496.462L497.705 528.811H500.192V544.575H468.232L466.503 556.305H462.225L459.738 572.306H497.606V578.358H421Z" fill="url(#paint0_linear_114_3)"/>
<path d="M496.743 421.046H488.854V426.169H496.743V732.453L567.671 733L556.024 447.652H576.045L576.568 442.53H555.812L555.153 426.169H581.62L582.69 421.046H554.891L554.63 414.83H583.81L586 394.068H549.914L548.67 376.986H543.692L540.084 202L536.475 376.986H527.329L526.632 355.416H514.575L510.978 266.972L507.37 355.416H502.492L501.248 394.068H487V414.805H496.743V421.046Z" fill="url(#paint1_linear_114_3)"/>
<path d="M1225 578.319L1227.71 602.846H1237.09L1238.33 612.445H1253.75L1255 617.774H1305.63L1307.51 623.115H1275.84L1277.51 625.606H1324.58L1330 638.753H1248.34L1243.17 652.972H1278.18V656.881H1242.08L1231.04 686.762H1300.83L1304.07 692.278H1310.42L1315.57 701.068H1340.47V707.031H1295.21L1282.16 738.842C1344.33 739.257 1406.51 739.643 1468.68 740L1462.46 720.179H1481.2L1484.94 713.431H1428.92L1424.96 702.412H1394.55L1392.46 692.091H1526.43L1529.55 680.014H1563.71L1547.05 637.346H1451.47L1452.92 623.128H1593.72L1597.88 607.478H1544.17L1534.58 584.731H1496.42L1499.18 528.791H1553.13L1556.65 508.173H1586.03L1587.77 497.74H1574.88L1575.86 490.867H1602L1598.14 471.195H1511.01L1508.52 448.199H1463.83L1462.36 405.868L1460.9 448.199H1452.92L1451.47 379L1450.01 448.199H1427.94L1425.52 471.195H1411.32L1407.46 490.867H1437.43L1438.41 497.74H1425.52L1427.27 508.173H1433.99L1437.52 528.791H1444.35V544.553H1355.8L1351.01 556.282H1339.14L1332.25 572.28H1437.19V578.331L1225 578.319Z" fill="url(#paint2_linear_114_3)"/>
<path d="M1427.7 421.027H1413.35V426.149H1427.7V739.279C1470.87 739.544 1514.03 739.784 1557.19 740L1535.51 447.633H1571.93L1572.86 442.51H1535.12L1533.88 426.149H1582.02L1583.97 421.027H1533.51L1533.04 414.81H1586.11L1590 394.073H1524.26L1521.96 376.99H1513.12L1506.56 202L1500.01 376.99H1483.37L1482.13 355.419H1460.14L1453.59 266.973L1447.03 355.419H1438.16L1435.86 394.073H1410V414.81H1427.71L1427.7 421.027Z" fill="url(#paint3_linear_114_3)"/>
<path d="M1309 384.054H1332.98L1333.83 377.822H1337.05L1339.44 314L1341.84 377.822H1347.9L1348.37 369.958H1356.39L1358.78 337.704L1361.17 369.958H1364.4L1365.25 384.054H1374.68V391.606H1368.22V393.887H1373.46V395.756H1368.22L1380 590.975L1326.76 591L1328.89 403.596H1315.61L1315.27 401.726H1329.03L1329.47 395.756H1311.91L1311.2 393.887H1329.61L1329.79 391.606H1310.43L1309 384.054Z" fill="url(#paint4_linear_114_3)"/>
<path d="M44.8479 643.907H127.658L127.858 730.478L206.796 731L206.995 643.932H256.699L258.492 631.73H288L277.653 616.804H186.439V609.341H230.577L222.583 594.415H176.914L175.083 576.503L173.365 594.315H166.667L164.886 557L163.106 594.315H100.067L92.0863 609.241H148.215V616.704H10.3342L0 631.63H43.1048L44.8479 643.907Z" fill="url(#paint5_linear_114_3)"/>
<path d="M173 410.277L174.407 445.506H179.276L179.936 459.286H187.944L188.604 466.954H214.917L215.901 474.608H199.426L200.297 478.187H224.78L227.595 497.075H185.129L182.427 517.491H200.621V523.108H181.941L176.088 566.004H212.377L214.058 573.919H217.371L220.048 586.544H232.962V595.106H209.513L201.169 651.26H187.296L176.188 729.969C224.614 730.3 273.049 730.644 321.491 731L312.102 653.273H300.894L296.448 613.957H306.199L308.154 604.252H279.051L276.959 588.47H261.143L260.06 573.658H329.76L331.379 556.261H349.187L340.47 495H290.782L291.541 474.571H364.753L366.92 452.104H338.963L333.982 419.435H314.131L315.564 339.137H343.633L345.451 309.525H360.719L361.628 294.613H354.928L355.439 284.747H369L366.995 256.489H321.703L320.458 223.473H297.208L296.448 162.683L295.639 223.41H291.492L290.732 124L289.972 223.41H278.491L277.245 256.427H269.873L267.856 284.685H283.434L283.945 294.551H277.245L278.154 309.463H281.654L283.497 339.074H287.033V361.715H240.957L238.466 378.565H232.24L228.666 401.541H283.235V410.24L173 410.277Z" fill="url(#paint6_linear_114_3)"/>
<path d="M312.748 338.675L312.449 345.802H280.788L282.034 351.636H312.237L311.477 370.295H287.803L288.388 376.142H311.24L296.737 731.403L378.886 732V351.636H387.894V345.802H378.886V338.675H390V315.041H373.802L372.369 270.969H366.799L362.688 170.112L358.576 270.969H344.72L343.91 295.524H333.481L329.357 96L325.245 295.524H319.701L318.255 315.041H277L279.492 338.675H312.748Z" fill="url(#paint7_linear_114_3)"/>
<path d="M887.915 736.327L974.635 737L974.921 611.054H1029.56L1031.54 597.577H1064L1052.62 581.062H952.319V572.804H1000.93L992.133 556.289H941.837L939.888 536.61L937.926 556.289H930.561L928.599 515L926.649 556.289H749V572.804H910.269V581.062H749V611.054H887.655L887.915 736.327Z" fill="url(#paint8_linear_114_3)"/>
<path d="M936.882 349.138L938.436 388.291H943.841L944.562 403.601H953.447L954.168 412.121H983.333L984.414 420.628H966.172L967.129 424.596H994.256L997.375 445.59H950.328L947.321 468.289H967.489V474.507H946.724L940.362 522.168H980.574L982.426 530.961H986.154L989.062 545.003H1003.38V554.518H977.281L968.036 616.929H952.726L936 735.731L1021.74 736.391L1105.24 737L1091.03 619.192H1078.61L1073.64 575.512H1084.45L1086.6 564.729H1054.29L1052.01 547.142H1034.58L1033.34 530.687H1110.52L1112.37 511.422H1132.05L1122.45 443.339H1067.39L1068.22 420.641H1149.34L1151.74 395.679H1120.77L1115.22 359.349H1093.22L1094.84 270.135H1125.9L1127.93 237.225H1144.85L1145.86 220.584H1138.4L1138.98 209.614H1154L1151.84 178.098H1101.65L1100.3 141.457H1074.49L1073.66 73.9092L1072.82 141.457H1068.22L1067.39 31L1066.54 141.457H1053.83L1052.42 178.098H1044.25L1042.02 209.502H1059.3L1059.87 220.472H1052.41L1053.42 237.114H1057.3L1059.3 270.135H1063.22V295.296H1012.26L1009.5 314.014H1002.66L998.692 339.548H1059.15V349.2L936.882 349.138Z" fill="url(#paint9_linear_114_3)"/>
<path d="M1024 480.125L1025.24 510.912H1029.5L1030.07 522.965H1037.07L1037.63 529.658H1060.6L1061.46 536.35H1047.06L1047.82 539.472H1069.2L1071.69 555.979H1034.58L1032.21 573.829H1048.11V578.742H1031.75L1026.78 616.221H1058.43L1059.9 623.137H1062.79L1065.13 634.183H1076.4V641.647H1055.85L1048.57 690.731H1036.47L1029.95 737.117L1150.85 738L1145.36 692.597H1135.63L1131.76 658.228H1140.26L1141.96 649.757H1116.49L1114.68 635.925H1100.93L1099.99 622.976H1160.77L1162.18 607.812H1177.69L1170.12 554.324H1126.77L1127.43 536.474H1191.3L1193.2 516.833H1168.75L1164.41 488.223H1147.14L1148.38 418.017H1172.86L1174.47 392.131H1187.78L1188.58 379.045H1182.73L1183.18 370.425H1195L1193.26 345.721H1153.75L1152.65 316.875H1132.37L1131.71 263.735L1131.05 316.875H1127.43L1126.77 230L1126.11 316.875H1116.09L1114.99 345.721H1108.55L1106.79 370.425H1120.4L1120.83 379.045H1114.99L1115.78 392.131H1118.84L1120.43 418.017H1123.53V437.807H1083.36L1081.18 452.523H1075.79L1072.67 472.612H1120.28V480.2L1024 480.125Z" fill="url(#paint10_linear_114_3)"/>
<path d="M735.548 269.408L735.225 277.309H700.197L701.55 283.805H734.964L734.12 304.521H707.92L708.566 311.004H733.846L716.637 734.278L808.695 735V283.854H818.628V277.359H808.695V269.458H821V243.204H803.033L801.444 194.242H795.235L790.691 82.2584L786.134 194.242H770.973L770.079 221.616H758.531L753.987 0L749.38 221.517H743.171L741.582 243.154H696L698.707 269.408H735.548Z" fill="url(#paint11_linear_114_3)"/>
<path d="M1127.63 455.925V595H994V376.878H1078.64V367H1141V455.925H1122.07H1127.63Z" fill="url(#paint12_linear_114_3)"/>
<path d="M1264 739L1262.47 726.517H1254.86L1253.62 706.694H1241.78L1240.99 647L1240.21 706.694H1235.94L1235.16 670.185L1234.38 706.694H1210.4L1209.16 726.517H1162.44L1161 738.297L1264 739Z" fill="url(#paint13_linear_114_3)"/>
<path d="M1164.5 678.418L1164.13 683.773H1122.9L1124.49 688.156H1163.87L1162.87 702.19H1132.01L1132.78 706.573H1162.51L1160.27 738.377L1250.53 739V688.156H1262.24V683.773H1250.53V678.418H1265V660.648H1243.9L1242.02 627.512H1234.79L1229.44 551.688L1224.07 627.512H1206.07L1205.03 646.004H1191.45L1186.1 496L1180.75 646.004H1173.53L1171.65 660.648H1118L1121.19 678.418H1164.5Z" fill="url(#paint14_linear_114_3)"/>
<path d="M1357.6 632.02H1465.81L1466.24 739.455L1569.05 740L1569.47 632.02H1634.42L1636.76 622.896H1641V611.754H1542.59V606.171H1600.27L1589.83 595.029H1530.17L1527.85 581.708L1525.52 595.029H1516.8L1514.45 567L1512.13 594.942H1429.76L1419.32 606.084H1492.67V611.668H1312.5L1299 622.81H1355.27L1357.6 632.02Z" fill="url(#paint15_linear_114_3)"/>
<path d="M1533.56 483.487L1534.41 493.85H1544.88L1545.73 499.61H1580.11L1581.35 505.37H1559.84L1560.97 508.057H1592.95L1596.68 522.265H1541.21L1537.67 537.617H1561.45V541.884H1536.96L1529.49 574.131H1576.89L1579.08 580.077H1583.41L1586.91 589.582H1603.78V596.014H1573.07L1562.18 638.238H1544.06L1519 740.39C1559.69 740.614 1600.35 740.818 1641 741V590.976H1640.5L1639.08 579.779H1640.93V457H1525.31L1527.15 483.487H1533.56Z" fill="url(#paint16_linear_114_3)"/>
<path d="M1641 420H1614.09L1610.82 432.688H1602.7L1598 450H1641V420Z" fill="url(#paint17_linear_114_3)"/>
<path d="M523.374 645.134H514.66L515.905 656.399H535.822L538.225 678.641H574.86L576.565 733.558L760.801 735L761 732.091H616.823V725.576H688.053L683.385 708.306H675.331L672.082 695.65H611.968V678.629H616.599L618.989 656.386H623.558L624.803 645.122H616.089L616.749 637.662H637.089L634.375 616.538H624.74L623.097 591.673H608.159L607.163 517L606.143 591.673H600.728L599.732 546.006L598.748 591.673H568.399L566.756 616.538H507.627L505 637.675H522.702L523.374 645.134Z" fill="url(#paint18_linear_114_3)"/>
<path d="M492.448 683.028H480.731V687.393H492.448V732.305L582.388 733L580.452 705.713H610.18L610.949 701.347H580.142L579.149 687.369H618.446L620.035 683.003H578.838L578.466 677.669H621.773L625 659.995H571.292L569.417 645.409H562.193L556.844 496L551.494 645.409H537.915L536.872 626.99H518.924L513.562 551.467L508.212 626.99H500.975L499.101 659.995H478V677.694H492.473L492.448 683.028Z" fill="url(#paint19_linear_114_3)"/>
<path d="M535 209C535 208.011 535.293 207.044 535.843 206.222C536.392 205.4 537.173 204.759 538.087 204.381C539 204.002 540.006 203.903 540.975 204.096C541.945 204.289 542.836 204.765 543.536 205.464C544.235 206.164 544.711 207.055 544.904 208.025C545.097 208.994 544.998 210 544.619 210.913C544.241 211.827 543.6 212.608 542.778 213.157C541.956 213.707 540.989 214 540 214C538.674 214 537.402 213.473 536.464 212.536C535.527 211.598 535 210.326 535 209Z" fill="#D9FFF5"/>
<path style="mix-blend-mode:screen" d="M540 224C549.389 224 557 217.284 557 209C557 200.716 549.389 194 540 194C530.611 194 523 200.716 523 209C523 217.284 530.611 224 540 224Z" fill="url(#paint20_radial_114_3)"/>
<path d="M510 274.512C509.997 273.621 510.288 272.75 510.836 272.009C511.384 271.267 512.164 270.688 513.077 270.346C513.991 270.004 514.997 269.913 515.967 270.085C516.938 270.257 517.83 270.685 518.531 271.314C519.231 271.943 519.709 272.744 519.903 273.618C520.097 274.491 519.999 275.396 519.621 276.219C519.243 277.042 518.602 277.746 517.779 278.241C516.957 278.736 515.989 279 515 279C513.676 279 512.406 278.527 511.469 277.686C510.532 276.845 510.004 275.703 510 274.512Z" fill="#D9FFF5"/>
<path style="mix-blend-mode:screen" d="M498 274.5C498 265.933 505.605 259 514.994 259C524.383 259 532 265.933 532 274.5C532 283.067 524.383 290 514.994 290C505.605 290 498 283.067 498 274.5Z" fill="url(#paint21_radial_114_3)"/>
<path d="M1484 709H1478V711H1484V709Z" fill="#73715D"/>
<path d="M1461 702H1442V708H1461V702Z" fill="#73715D"/>
<path d="M1528 702H1507V709H1528V702Z" fill="#73715D"/>
<path d="M1488 701H1478V704H1488V701Z" fill="#73715D"/>
<path d="M1489 698H1479V702H1489V698Z" fill="#73715D"/>
<path d="M1492 692H1472V699H1492V692Z" fill="#73715D"/>
<path d="M1510 692H1498V696H1510V692Z" fill="#73715D"/>
<path d="M1531 686H1516V691H1531V686Z" fill="#73715D"/>
<g style="mix-blend-mode:screen">
<path d="M1426.84 699.295H1421.25V701.199H1426.84V699.295Z" fill="#73715D"/>
<path d="M1448.08 700.415H1442.96V702.156H1448.08V700.415Z" fill="#73715D"/>
<path d="M1445.23 696.272H1436.94V699.096H1445.23V696.272Z" fill="#73715D"/>
<path d="M1473.31 696.235H1464.32V699.295H1473.31V696.235Z" fill="#73715D"/>
<path d="M1463.86 692.029H1449.63V696.869H1463.86V692.029Z" fill="#73715D"/>
<path d="M1514.98 690.537H1504.15V694.219H1514.98V690.537Z" fill="#73715D"/>
<path d="M1502.13 680.721H1488.41V685.386H1502.13V680.721Z" fill="#73715D"/>
<path d="M1429.09 666.886H1424.41V668.478H1429.09V666.886Z" fill="#73715D"/>
<path d="M1482.39 664.361H1462.82V671.017H1482.39V664.361Z" fill="#73715D"/>
<path d="M1457.71 658.774H1438.02V665.468H1457.71V658.774Z" fill="#73715D"/>
<path d="M1440.71 650.999H1420.57V657.854H1440.71V650.999Z" fill="#73715D"/>
<path d="M1438.52 648.051H1421.86V653.724H1438.52V648.051Z" fill="#73715D"/>
<path d="M1463.89 645.326H1446.99V651.073H1463.89V645.326Z" fill="#73715D"/>
<path d="M1490.82 645.873H1485.6V647.652H1490.82V645.873Z" fill="#73715D"/>
<path d="M1510.84 642.253H1489.74V649.431H1510.84V642.253Z" fill="#73715D"/>
<path d="M1503.39 636.43H1485.52V642.514H1503.39V636.43Z" fill="#73715D"/>
<path d="M1521.34 637.065H1510.01V640.922H1521.34V637.065Z" fill="#73715D"/>
<path d="M1474.55 628.07H1457.43V633.892H1474.55V628.07Z" fill="#73715D"/>
</g>
<g style="mix-blend-mode:screen">
<path d="M987.695 698.3H982.507V700.066H987.695V698.3Z" fill="#73715D"/>
<path d="M981.861 693.721H962.39V700.34H981.861V693.721Z" fill="#73715D"/>
<path d="M1055.95 695.812H1048.47V698.35H1055.95V695.812Z" fill="#73715D"/>
<path d="M982.868 686.904H971.248V690.86H982.868V686.904Z" fill="#73715D"/>
<path d="M996.18 684.191H984.436V688.185H996.18V684.191Z" fill="#73715D"/>
<path d="M1032.71 683.109H1016.1V688.757H1032.71V683.109Z" fill="#73715D"/>
<path d="M1014.49 679.899H1009.16V681.716H1014.49V679.899Z" fill="#73715D"/>
<path d="M1042.16 678.021H1031V681.815H1042.16V678.021Z" fill="#73715D"/>
<path d="M1032.89 675.184H1022.38V678.755H1032.89V675.184Z" fill="#73715D"/>
<path d="M1046.07 667.496H1027.46V673.828H1046.07V667.496Z" fill="#73715D"/>
<path d="M1054.42 661.039H1041.8V665.331H1054.42V661.039Z" fill="#73715D"/>
<path d="M989.897 653.922H984.983V655.589H989.897V653.922Z" fill="#73715D"/>
<path d="M1050.58 651.671H1034.49V657.145H1050.58V651.671Z" fill="#73715D"/>
<path d="M1050.44 651.646H1046.57V652.965H1050.44V651.646Z" fill="#73715D"/>
<path d="M1032.2 648.175H1027.23V649.867H1032.2V648.175Z" fill="#73715D"/>
<path d="M989.176 643.248H976.971V647.403H989.176V643.248Z" fill="#73715D"/>
<path d="M1033.94 642.725H1025.32V645.661H1033.94V642.725Z" fill="#73715D"/>
<path d="M991.975 639.715H984.212V642.352H991.975V639.715Z" fill="#73715D"/>
<path d="M1012.39 632.71H996.143V638.234H1012.39V632.71Z" fill="#73715D"/>
<path d="M1015.43 631.404H999.502V636.828H1015.43V631.404Z" fill="#73715D"/>
<path d="M969.046 625.818H961.768V628.294H969.046V625.818Z" fill="#73715D"/>
<path d="M1040.56 625.706H1031.46V628.804H1040.56V625.706Z" fill="#73715D"/>
<path d="M1002.19 617.159H983.528V623.504H1002.19V617.159Z" fill="#73715D"/>
<path d="M1038.32 613.178H1030.77V615.753H1038.32V613.178Z" fill="#73715D"/>
<path d="M980.256 605.589H965.401V610.64H980.256V605.589Z" fill="#73715D"/>
</g>
<path d="M295 703H278V709H295V703Z" fill="#73715D"/>
<path d="M337 699H325V703H337V699Z" fill="#73715D"/>
<path d="M277 697H272V699H277V697Z" fill="#73715D"/>
<path d="M267 696H259V698H267V696Z" fill="#73715D"/>
<path d="M283 689H265V695H283V689Z" fill="#73715D"/>
<path d="M331 685H326V686H331V685Z" fill="#73715D"/>
<path d="M531 707H517V712H531V707Z" fill="#73715D"/>
<path d="M560 705H558V706H560V705Z" fill="#73715D"/>
<path d="M595 697H575V704H595V697Z" fill="#73715D"/>
<path d="M561 689H548V694H561V689Z" fill="#73715D"/>
<path d="M579 684H570V687H579V684Z" fill="#73715D"/>
<path d="M538 679H535V680H538V679Z" fill="#73715D"/>
<g style="mix-blend-mode:screen">
<path d="M280.633 673.455H260.74V680.223H280.633V673.455Z" fill="#73715D"/>
<path d="M231.006 669.648H222.919V672.397H231.006V669.648Z" fill="#73715D"/>
<path d="M208.823 666.998H202.117V669.275H208.823V666.998Z" fill="#73715D"/>
<path d="M239.08 659.334H218.589V666.301H239.08V659.334Z" fill="#73715D"/>
<path d="M255.9 656.062H249.642V658.19H255.9V656.062Z" fill="#73715D"/>
<path d="M279.351 650.352H268.403V654.072H279.351V650.352Z" fill="#73715D"/>
<path d="M275.109 645.276H271.601V646.47H275.109V645.276Z" fill="#73715D"/>
</g>
<g style="mix-blend-mode:screen">
<path d="M498.152 639.503H486.408V643.497H498.152V639.503Z" fill="#73715D"/>
<path d="M513.641 631.056H502.221V634.938H513.641V631.056Z" fill="#73715D"/>
<path d="M547.531 626.005H542.243V627.809H547.531V626.005Z" fill="#73715D"/>
<path d="M504.36 621.725H496.236V624.487H504.36V621.725Z" fill="#73715D"/>
<path d="M491.024 619.262H472.213V625.656H491.024V619.262Z" fill="#73715D"/>
</g>
<g style="mix-blend-mode:screen">
<path d="M1059.88 646.433H1056.88V647.453H1059.88V646.433Z" fill="#73715D"/>
<path d="M1112.52 640.573H1099.3V645.065H1112.52V640.573Z" fill="#73715D"/>
<path d="M1047.23 638.458H1033.63V643.087H1047.23V638.458Z" fill="#73715D"/>
<path d="M1051.8 637.314H1045.4V639.491H1051.8V637.314Z" fill="#73715D"/>
<path d="M1085.39 633.034H1068.64V638.732H1085.39V633.034Z" fill="#73715D"/>
<path d="M1086.1 624.786H1064.69V632.064H1086.1V624.786Z" fill="#73715D"/>
<path d="M1055.96 622.409H1045.77V625.881H1055.96V622.409Z" fill="#73715D"/>
<path d="M1043.99 615.99H1025.06V622.434H1043.99V615.99Z" fill="#73715D"/>
<path d="M1082.62 609.633H1072.89V612.942H1082.62V609.633Z" fill="#73715D"/>
<path d="M1094.58 604.121H1086.33V606.92H1094.58V604.121Z" fill="#73715D"/>
<path d="M1090.3 596.072H1079.9V599.605H1090.3V596.072Z" fill="#73715D"/>
<path d="M1040.1 589.316H1022.02V595.462H1040.1V589.316Z" fill="#73715D"/>
<path d="M1048.23 583.519H1032.27V588.956H1048.23V583.519Z" fill="#73715D"/>
<path d="M1017.04 581.08H1011.72V582.897H1017.04V581.08Z" fill="#73715D"/>
<path d="M1093.99 574.536H1076.19V580.595H1093.99V574.536Z" fill="#73715D"/>
<path d="M1094.96 569.709H1088.82V571.799H1094.96V569.709Z" fill="#73715D"/>
<path d="M1083.22 567.109H1067.07V572.608H1083.22V567.109Z" fill="#73715D"/>
<path d="M1072.18 562.917H1069.61V563.787H1072.18V562.917Z" fill="#73715D"/>
<path d="M1055.75 556.161H1038.04V562.182H1055.75V556.161Z" fill="#73715D"/>
<path d="M1024.1 556.634H1017.23V558.973H1024.1V556.634Z" fill="#73715D"/>
<path d="M1048.76 552.715H1043.07V554.643H1048.76V552.715Z" fill="#73715D"/>
<path d="M1022.04 545.113H1002.44V551.782H1022.04V545.113Z" fill="#73715D"/>
<path d="M1084.59 539.813H1074.89V543.11H1084.59V539.813Z" fill="#73715D"/>
<path d="M1074.17 534.986H1052.72V542.277H1074.17V534.986Z" fill="#73715D"/>
<path d="M1055.13 531.627H1039.92V536.802H1055.13V531.627Z" fill="#73715D"/>
<path d="M1076.52 529.885H1070.03V532.1H1076.52V529.885Z" fill="#73715D"/>
<path d="M1071.11 525.208H1055.41V530.545H1071.11V525.208Z" fill="#73715D"/>
<path d="M1092.92 518.153H1082.57V521.674H1092.92V518.153Z" fill="#73715D"/>
<path d="M1054.12 512.107H1041.6V516.362H1054.12V512.107Z" fill="#73715D"/>
<path d="M1064.9 509.594H1052.24V513.899H1064.9V509.594Z" fill="#73715D"/>
<path d="M1087.25 504.991H1083.09V506.409H1087.25V504.991Z" fill="#73715D"/>
<path d="M1098.93 498.011H1095.1V499.318H1098.93V498.011Z" fill="#73715D"/>
<path d="M1075.14 495.349H1067.17V498.061H1075.14V495.349Z" fill="#73715D"/>
<path d="M1047.14 492.512H1033.06V497.302H1047.14V492.512Z" fill="#73715D"/>
</g>
<g style="mix-blend-mode:screen">
<path d="M1496.22 646.023H1476.32V652.791H1496.22V646.023Z" fill="#73715D"/>
<path d="M1514.86 641.544H1498.72V647.03H1514.86V641.544Z" fill="#73715D"/>
<path d="M1468.36 633.047H1453.69V638.035H1468.36V633.047Z" fill="#73715D"/>
<path d="M1483.88 632.288H1477.82V634.353H1483.88V632.288Z" fill="#73715D"/>
<path d="M1500.85 627.672H1498.59V628.443H1500.85V627.672Z" fill="#73715D"/>
<path d="M1485.09 620.021H1470.2V625.084H1485.09V620.021Z" fill="#73715D"/>
<path d="M1502.64 616.998H1489.31V621.539H1502.64V616.998Z" fill="#73715D"/>
<path d="M1511.61 614.684H1507.22V616.177H1511.61V614.684Z" fill="#73715D"/>
<path d="M1458.81 606.497H1450.88V609.197H1458.81V606.497Z" fill="#73715D"/>
<path d="M1455.02 599.257H1443.66V603.126H1455.02V599.257Z" fill="#73715D"/>
<path d="M1511.9 595.487H1498.28V600.128H1511.9V595.487Z" fill="#73715D"/>
</g>
<path d="M1026 708H1006V715H1026V708Z" fill="#73715D"/>
<path d="M1036 708H1027V711H1036V708Z" fill="#73715D"/>
<path d="M1058 708H1042V714H1058V708Z" fill="#73715D"/>
<path d="M1059 708H1056V710H1059V708Z" fill="#73715D"/>
<path d="M1090 698H1075V703H1090V698Z" fill="#73715D"/>
<path d="M1152 686H1135V692H1152V686Z" fill="#73715D"/>
<path d="M1170 700H1164V702H1170V700Z" fill="#73715D"/>
<path d="M1178 708H1173V709H1178V708Z" fill="#73715D"/>
<path d="M1176 702H1168V705H1176V702Z" fill="#73715D"/>
<path d="M1188 686H1176V690H1188V686Z" fill="#73715D"/>
<path d="M1210 698H1189V704H1210V698Z" fill="#73715D"/>
<path d="M1211 689H1206V691H1211V689Z" fill="#73715D"/>
<path d="M1219 689H1202V695H1219V689Z" fill="#73715D"/>
<path d="M1222 693H1219V695H1222V693Z" fill="#73715D"/>
<path d="M1242 707H1238V708H1242V707Z" fill="#73715D"/>
<path d="M1253 686H1243V689H1253V686Z" fill="#73715D"/>
<g style="mix-blend-mode:screen">
<path d="M157.914 662.793H140.024V668.877H157.914V662.793Z" fill="#73715D"/>
<path d="M157.529 701.522H153.187V703.002H157.529V701.522Z" fill="#73715D"/>
<path d="M159.395 668.528H155.389V669.884H159.395V668.528Z" fill="#73715D"/>
<path d="M167.108 695.998H157.093V699.407H167.108V695.998Z" fill="#73715D"/>
</g>
<path d="M234 681H229V683H234V681Z" fill="#73715D"/>
<path d="M242 706H220V714H242V706Z" fill="#73715D"/>
<path d="M241 701H236V702H241V701Z" fill="#73715D"/>
<path d="M266 276H262V280H266V276Z" fill="#FFFF00"/>
<path d="M273 290.25V293H277V290L273 290.25Z" fill="#FFDD00"/>
<defs>
<linearGradient id="paint0_linear_114_3" x1="489.012" y1="1114.57" x2="489.012" y2="-159.004" gradientUnits="userSpaceOnUse">
<stop stop-color="#FFFFE6"/>
<stop offset="0.04" stop-color="#FFF2E4"/>
<stop offset="0.19" stop-color="#FFBDDE"/>
<stop offset="0.31" stop-color="#FF9CDA"/>
<stop offset="0.37" stop-color="#FF90D8"/>
<stop offset="0.41" stop-color="#F789D5"/>
<stop offset="0.69" stop-color="#BE5AC3"/>
<stop offset="0.89" stop-color="#9B3DB7"/>
<stop offset="1" stop-color="#8E32B3"/>
</linearGradient>
<linearGradient id="paint1_linear_114_3" x1="536.5" y1="1113.47" x2="536.5" y2="-158.092" gradientUnits="userSpaceOnUse">
<stop stop-color="#FFFFE6"/>
<stop offset="0.04" stop-color="#FFF2E4"/>
<stop offset="0.19" stop-color="#FFBDDE"/>
<stop offset="0.31" stop-color="#FF9CDA"/>
<stop offset="0.37" stop-color="#FF90D8"/>
<stop offset="0.41" stop-color="#F789D5"/>
<stop offset="0.69" stop-color="#BE5AC3"/>
<stop offset="0.89" stop-color="#9B3DB7"/>
<stop offset="1" stop-color="#8E32B3"/>
</linearGradient>
<linearGradient id="paint2_linear_114_3" x1="1413.48" y1="1114.46" x2="1413.48" y2="-158.945" gradientUnits="userSpaceOnUse">
<stop stop-color="#FFFFE6"/>
<stop offset="0.04" stop-color="#FFF2E4"/>
<stop offset="0.19" stop-color="#FFBDDE"/>
<stop offset="0.31" stop-color="#FF9CDA"/>
<stop offset="0.37" stop-color="#FF90D8"/>
<stop offset="0.41" stop-color="#F789D5"/>
<stop offset="0.69" stop-color="#BE5AC3"/>
<stop offset="0.89" stop-color="#9B3DB7"/>
<stop offset="1" stop-color="#8E32B3"/>
</linearGradient>
<linearGradient id="paint3_linear_114_3" x1="1499.99" y1="1113.47" x2="1499.99" y2="-158.125" gradientUnits="userSpaceOnUse">
<stop stop-color="#FFFFE6"/>
<stop offset="0.04" stop-color="#FFF2E4"/>
<stop offset="0.19" stop-color="#FFBDDE"/>
<stop offset="0.31" stop-color="#FF9CDA"/>
<stop offset="0.37" stop-color="#FF90D8"/>
<stop offset="0.41" stop-color="#F789D5"/>
<stop offset="0.69" stop-color="#BE5AC3"/>
<stop offset="0.89" stop-color="#9B3DB7"/>
<stop offset="1" stop-color="#8E32B3"/>
</linearGradient>
<linearGradient id="paint4_linear_114_3" x1="1344.5" y1="1115.09" x2="1344.5" y2="-159.589" gradientUnits="userSpaceOnUse">
<stop stop-color="#FFFFE6"/>
<stop offset="0.04" stop-color="#FFF2E4"/>
<stop offset="0.19" stop-color="#FFBDDE"/>
<stop offset="0.31" stop-color="#FF9CDA"/>
<stop offset="0.37" stop-color="#FF90D8"/>
<stop offset="0.41" stop-color="#F789D5"/>
<stop offset="0.69" stop-color="#BE5AC3"/>
<stop offset="0.89" stop-color="#9B3DB7"/>
<stop offset="1" stop-color="#8E32B3"/>
</linearGradient>
<linearGradient id="paint5_linear_114_3" x1="143.994" y1="1114.34" x2="143.994" y2="-157.832" gradientUnits="userSpaceOnUse">
<stop stop-color="#FFFFE6"/>
<stop offset="0.04" stop-color="#FFF2E4"/>
<stop offset="0.19" stop-color="#FFBDDE"/>
<stop offset="0.31" stop-color="#FF9CDA"/>
<stop offset="0.37" stop-color="#FF90D8"/>
<stop offset="0.41" stop-color="#F789D5"/>
<stop offset="0.69" stop-color="#BE5AC3"/>
<stop offset="0.89" stop-color="#9B3DB7"/>
<stop offset="1" stop-color="#8E32B3"/>
</linearGradient>
<linearGradient id="paint6_linear_114_3" x1="270.994" y1="1113.15" x2="270.994" y2="-157.791" gradientUnits="userSpaceOnUse">
<stop stop-color="#FFFFE6"/>
<stop offset="0.04" stop-color="#FFF2E4"/>
<stop offset="0.19" stop-color="#FFBDDE"/>
<stop offset="0.31" stop-color="#FF9CDA"/>
<stop offset="0.37" stop-color="#FF90D8"/>
<stop offset="0.41" stop-color="#F789D5"/>
<stop offset="0.69" stop-color="#BE5AC3"/>
<stop offset="0.89" stop-color="#9B3DB7"/>
<stop offset="1" stop-color="#8E32B3"/>
</linearGradient>
<linearGradient id="paint7_linear_114_3" x1="333.481" y1="1114.12" x2="333.481" y2="-157.82" gradientUnits="userSpaceOnUse">
<stop stop-color="#FFFFE6"/>
<stop offset="0.04" stop-color="#FFF2E4"/>
<stop offset="0.19" stop-color="#FFBDDE"/>
<stop offset="0.31" stop-color="#FF9CDA"/>
<stop offset="0.37" stop-color="#FF90D8"/>
<stop offset="0.41" stop-color="#F789D5"/>
<stop offset="0.69" stop-color="#BE5AC3"/>
<stop offset="0.89" stop-color="#9B3DB7"/>
<stop offset="1" stop-color="#8E32B3"/>
</linearGradient>
<linearGradient id="paint8_linear_114_3" x1="906.519" y1="1114.98" x2="906.519" y2="-158.909" gradientUnits="userSpaceOnUse">
<stop stop-color="#FFFFE6"/>
<stop offset="0.04" stop-color="#FFF2E4"/>
<stop offset="0.19" stop-color="#FFBDDE"/>
<stop offset="0.31" stop-color="#FF9CDA"/>
<stop offset="0.37" stop-color="#FF90D8"/>
<stop offset="0.41" stop-color="#F789D5"/>
<stop offset="0.69" stop-color="#BE5AC3"/>
<stop offset="0.89" stop-color="#9B3DB7"/>
<stop offset="1" stop-color="#8E32B3"/>
</linearGradient>
<linearGradient id="paint9_linear_114_3" x1="1045.02" y1="1113.49" x2="1045.02" y2="-158.584" gradientUnits="userSpaceOnUse">
<stop stop-color="#FFFFE6"/>
<stop offset="0.04" stop-color="#FFF2E4"/>
<stop offset="0.19" stop-color="#FFBDDE"/>
<stop offset="0.31" stop-color="#FF9CDA"/>
<stop offset="0.37" stop-color="#FF90D8"/>
<stop offset="0.41" stop-color="#F789D5"/>
<stop offset="0.69" stop-color="#BE5AC3"/>
<stop offset="0.89" stop-color="#9B3DB7"/>
<stop offset="1" stop-color="#8E32B3"/>
</linearGradient>
<linearGradient id="paint10_linear_114_3" x1="1109.51" y1="1114.12" x2="1109.51" y2="-158.125" gradientUnits="userSpaceOnUse">
<stop stop-color="#FFFFE6"/>
<stop offset="0.04" stop-color="#FFF2E4"/>
<stop offset="0.19" stop-color="#FFBDDE"/>
<stop offset="0.31" stop-color="#FF9CDA"/>
<stop offset="0.37" stop-color="#FF90D8"/>
<stop offset="0.41" stop-color="#F789D5"/>
<stop offset="0.69" stop-color="#BE5AC3"/>
<stop offset="0.89" stop-color="#9B3DB7"/>
<stop offset="1" stop-color="#8E32B3"/>
</linearGradient>
<linearGradient id="paint11_linear_114_3" x1="758.494" y1="1113.88" x2="758.494" y2="-158.731" gradientUnits="userSpaceOnUse">
<stop stop-color="#FFFFE6"/>
<stop offset="0.04" stop-color="#FFF2E4"/>
<stop offset="0.19" stop-color="#FFBDDE"/>
<stop offset="0.31" stop-color="#FF9CDA"/>
<stop offset="0.37" stop-color="#FF90D8"/>
<stop offset="0.41" stop-color="#F789D5"/>
<stop offset="0.69" stop-color="#BE5AC3"/>
<stop offset="0.89" stop-color="#9B3DB7"/>
<stop offset="1" stop-color="#8E32B3"/>
</linearGradient>
<linearGradient id="paint12_linear_114_3" x1="1067.5" y1="1114.74" x2="1067.5" y2="-159.266" gradientUnits="userSpaceOnUse">
<stop stop-color="#FFFFE6"/>
<stop offset="0.04" stop-color="#FFF2E4"/>
<stop offset="0.19" stop-color="#FFBDDE"/>
<stop offset="0.31" stop-color="#FF9CDA"/>
<stop offset="0.37" stop-color="#FF90D8"/>
<stop offset="0.41" stop-color="#F789D5"/>
<stop offset="0.69" stop-color="#BE5AC3"/>
<stop offset="0.89" stop-color="#9B3DB7"/>
<stop offset="1" stop-color="#8E32B3"/>
</linearGradient>
<linearGradient id="paint13_linear_114_3" x1="1212.45" y1="1117.64" x2="1212.45" y2="-165.543" gradientUnits="userSpaceOnUse">
<stop stop-color="#FFFFE6"/>
<stop offset="0.04" stop-color="#FFF2E4"/>
<stop offset="0.19" stop-color="#FFBDDE"/>
<stop offset="0.31" stop-color="#FF9CDA"/>
<stop offset="0.37" stop-color="#FF90D8"/>
<stop offset="0.41" stop-color="#F789D5"/>
<stop offset="0.69" stop-color="#BE5AC3"/>
<stop offset="0.89" stop-color="#9B3DB7"/>
<stop offset="1" stop-color="#8E32B3"/>
</linearGradient>
<linearGradient id="paint14_linear_114_3" x1="1191.5" y1="1114.91" x2="1191.5" y2="-158.72" gradientUnits="userSpaceOnUse">
<stop stop-color="#FFFFE6"/>
<stop offset="0.04" stop-color="#FFF2E4"/>
<stop offset="0.19" stop-color="#FFBDDE"/>
<stop offset="0.31" stop-color="#FF9CDA"/>
<stop offset="0.37" stop-color="#FF90D8"/>
<stop offset="0.41" stop-color="#F789D5"/>
<stop offset="0.69" stop-color="#BE5AC3"/>
<stop offset="0.89" stop-color="#9B3DB7"/>
<stop offset="1" stop-color="#8E32B3"/>
</linearGradient>
<linearGradient id="paint15_linear_114_3" x1="1469.99" y1="1111.82" x2="1469.99" y2="-154.39" gradientUnits="userSpaceOnUse">
<stop stop-color="#FFFFE6"/>
<stop offset="0.04" stop-color="#FFF2E4"/>
<stop offset="0.19" stop-color="#FFBDDE"/>
<stop offset="0.31" stop-color="#FF9CDA"/>
<stop offset="0.37" stop-color="#FF90D8"/>
<stop offset="0.41" stop-color="#F789D5"/>
<stop offset="0.69" stop-color="#BE5AC3"/>
<stop offset="0.89" stop-color="#9B3DB7"/>
<stop offset="1" stop-color="#8E32B3"/>
</linearGradient>
<linearGradient id="paint16_linear_114_3" x1="1579.96" y1="1114.26" x2="1579.96" y2="-158.163" gradientUnits="userSpaceOnUse">
<stop stop-color="#FFFFE6"/>
<stop offset="0.04" stop-color="#FFF2E4"/>
<stop offset="0.19" stop-color="#FFBDDE"/>
<stop offset="0.31" stop-color="#FF9CDA"/>
<stop offset="0.37" stop-color="#FF90D8"/>
<stop offset="0.41" stop-color="#F789D5"/>
<stop offset="0.69" stop-color="#BE5AC3"/>
<stop offset="0.89" stop-color="#9B3DB7"/>
<stop offset="1" stop-color="#8E32B3"/>
</linearGradient>
<linearGradient id="paint17_linear_114_3" x1="1619.51" y1="1115" x2="1619.51" y2="-159.759" gradientUnits="userSpaceOnUse">
<stop stop-color="#FFFFE6"/>
<stop offset="0.04" stop-color="#FFF2E4"/>
<stop offset="0.19" stop-color="#FFBDDE"/>
<stop offset="0.31" stop-color="#FF9CDA"/>
<stop offset="0.37" stop-color="#FF90D8"/>
<stop offset="0.41" stop-color="#F789D5"/>
<stop offset="0.69" stop-color="#BE5AC3"/>
<stop offset="0.89" stop-color="#9B3DB7"/>
<stop offset="1" stop-color="#8E32B3"/>
</linearGradient>
<linearGradient id="paint18_linear_114_3" x1="632.944" y1="1113.96" x2="632.944" y2="-157.664" gradientUnits="userSpaceOnUse">
<stop stop-color="#FFFFE6"/>
<stop offset="0.04" stop-color="#FFF2E4"/>
<stop offset="0.19" stop-color="#FFBDDE"/>
<stop offset="0.31" stop-color="#FF9CDA"/>
<stop offset="0.37" stop-color="#FF90D8"/>
<stop offset="0.41" stop-color="#F789D5"/>
<stop offset="0.69" stop-color="#BE5AC3"/>
<stop offset="0.89" stop-color="#9B3DB7"/>
<stop offset="1" stop-color="#8E32B3"/>
</linearGradient>
<linearGradient id="paint19_linear_114_3" x1="551.469" y1="1112.45" x2="551.469" y2="-156.122" gradientUnits="userSpaceOnUse">
<stop stop-color="#FFFFE6"/>
<stop offset="0.04" stop-color="#FFF2E4"/>
<stop offset="0.19" stop-color="#FFBDDE"/>
<stop offset="0.31" stop-color="#FF9CDA"/>
<stop offset="0.37" stop-color="#FF90D8"/>
<stop offset="0.41" stop-color="#F789D5"/>
<stop offset="0.69" stop-color="#BE5AC3"/>
<stop offset="0.89" stop-color="#9B3DB7"/>
<stop offset="1" stop-color="#8E32B3"/>
</linearGradient>
<radialGradient id="paint20_radial_114_3" cx="0" cy="0" r="1" gradientUnits="userSpaceOnUse" gradientTransform="translate(540 209) rotate(180) scale(16.1079 15.9444)">
<stop stop-color="#FFFFEB"/>
<stop offset="0.15" stop-color="#BDBDAE"/>
<stop offset="0.3" stop-color="#838379"/>
<stop offset="0.45" stop-color="#54544E"/>
<stop offset="0.59" stop-color="#30302C"/>
<stop offset="0.71" stop-color="#151514"/>
<stop offset="0.83" stop-color="#060605"/>
<stop offset="0.92"/>
</radialGradient>
<radialGradient id="paint21_radial_114_3" cx="0" cy="0" r="1" gradientUnits="userSpaceOnUse" gradientTransform="translate(514.994 274.5) rotate(180) scale(16.102 16.4759)">
<stop stop-color="#FFFFEB"/>
<stop offset="0.15" stop-color="#BDBDAE"/>
<stop offset="0.3" stop-color="#838379"/>
<stop offset="0.45" stop-color="#54544E"/>
<stop offset="0.59" stop-color="#30302C"/>
<stop offset="0.71" stop-color="#151514"/>
<stop offset="0.83" stop-color="#060605"/>
<stop offset="0.92"/>
</radialGradient>
</defs>
</svg>
