<svg width="108" height="297" viewBox="0 0 108 297" fill="none" xmlns="http://www.w3.org/2000/svg">
<path d="M70.71 50.2202H58.25V57.9902H70.71V50.2202Z" fill="#DDB99F"/>
<path d="M70.7802 29.1101H58.4902V50.8101H70.7802V29.1101Z" fill="#BFA08C"/>
<path d="M58.47 46.3901H35V57.8401H58.47V46.3901Z" fill="#BFA08C"/>
<path d="M58.4099 3.79004H23.1299V51.09H58.4099V3.79004Z" fill="#DDB99F"/>
<path d="M38.9 0H38.33H17.71V10.55H38.33H38.9H58.96V0H38.9Z" fill="#313131"/>
<path d="M70.7399 9.87012H58.4399V35.0201H70.7399V9.87012Z" fill="#313131"/>
<path d="M35.45 76.1401H0V153.23C0 153.23 106.47 152.59 107.11 153.23C107.75 153.87 107.11 76.1401 107.11 76.1401H35.45Z" fill="white"/>
<path d="M82.4301 76.0801H23.1401V152.91H82.4301V76.0801Z" fill="#E2E2E2"/>
<path d="M11.2998 153.23H0.00976562V165.01H11.2998V153.23Z" fill="#DDB99F"/>
<path d="M106.32 153H94.54V165.01H106.32V153Z" fill="#DDB99F"/>
<path d="M88.9498 164.81H15.8198V189.15H88.9498V164.81Z" fill="#424242"/>
<path d="M45.57 188.92H18.75V280.37H45.57V188.92Z" fill="#424242"/>
<path d="M86.5901 188.92H66.1001V280.37H86.5901V188.92Z" fill="#424242"/>
<path d="M29.04 164.81H18.27V280.37H29.04V164.81Z" fill="#1E1E1E"/>
<path d="M76.4399 188.92H61.6699V280.37H76.4399V188.92Z" fill="#1E1E1E"/>
<path d="M38.5101 51.1501H23.0801V57.7802H38.5101V51.1501Z" fill="#BFA08C"/>
<path d="M59.2002 69.6201H46.6602V81.2701H59.2002V69.6201Z" fill="#DDB99F"/>
<path d="M46.87 57.9002L35.24 57.7002L35.21 69.7802V76.1402H70.78V57.8802H58.41V69.5602H46.9L46.87 57.9002Z" fill="#DDB99F"/>
<path d="M59.2502 57.8901H46.6602V69.6202H59.2502V57.8901Z" fill="#DDB99F"/>
<path d="M94.5398 139.84H11.2998V164.81H94.5398V139.84Z" fill="white"/>
<path d="M23.0298 94.02H11.0498V164.79H23.0298V94.02Z" fill="#E2E2E2"/>
<path d="M94.26 94.02H82.52V164.79H94.26V94.02Z" fill="#E2E2E2"/>
<path d="M45.5502 284.55H2.97021V296.7H45.5502V284.55Z" fill="#313131"/>
<path d="M101.95 284.55H61.7402V296.7H101.95V284.55Z" fill="#313131"/>
<path d="M59.1198 84.1101H46.5898V132.54H59.1198V84.1101Z" fill="#424242"/>
<path d="M59.1198 81.25H46.5898V92.52H59.1198V81.25Z" fill="#1E1E1E"/>
<path d="M43.5401 280.17H20.5601V284.57H43.5401V280.17Z" fill="#191919"/>
<path d="M84.4899 280.17H63.3999V284.57H84.4899V280.17Z" fill="#191919"/>
<path d="M41.1798 85.3601H33.5098V94.8601H41.1798V85.3601Z" fill="white"/>
<path d="M75.1102 85.3601H65.9902V95.0101H75.1102V85.3601Z" fill="white"/>
<path d="M94.1202 76.25H70.9102V89.91H94.1202V76.25Z" fill="white"/>
<path d="M35.5599 85.4902H19.8999V157.66H35.5599V85.4902Z" fill="white"/>
<path d="M86.3701 86.04H70.5801V157.67H86.3701V86.04Z" fill="white"/>
<path d="M35.5602 107.26H11.4102V245.87H35.5602V107.26Z" fill="white"/>
<path d="M94.5502 107.26H70.7402V245.87H94.5502V107.26Z" fill="white"/>
<path d="M35.3298 76.1702H10.8198V89.7502H35.3298V76.1702Z" fill="white"/>
<path d="M19.8701 103.58H11.1401V245.83H19.8701V103.58Z" fill="#E2E2E2"/>
<path d="M94.7598 93.9001H86.2998V246.02H94.7598V93.9001Z" fill="#E2E2E2"/>
<path d="M57.4598 130.9H48.2598V134.59H57.4598V130.9Z" fill="#424242"/>
<path d="M55.7401 133.38H50.1401V137.07H55.7401V133.38Z" fill="#424242"/>
<path d="M31.6801 21.02H26.3901V39.7401H31.6801V21.02Z" fill="#BFA08C"/>
<path d="M41.8101 19.0801H32.0801V26.4801H41.8101V19.0801Z" fill="#1E1E1E"/>
<path d="M38.57 22.9402H34.71V26.4902H38.57V22.9402Z" fill="#1E1E1E"/>
<path d="M41.7898 19.0701H38.5698V22.8601H41.7898V19.0701Z" fill="#1E1E1E"/>
<path d="M40.7701 21.1401H33.5601V23.8802H40.7701V21.1401Z" fill="white"/>
<path d="M40.1601 22.6301H34.0801V24.9201H40.1601V22.6301Z" fill="white"/>
<path d="M40.1601 20.48H34.0801V22.77H40.1601V20.48Z" fill="white"/>
<path d="M39.4001 24H34.8301V25.86H39.4001V24Z" fill="white"/>
<path d="M39.4001 19.52H34.8301V21.3801H39.4001V19.52Z" fill="white"/>
<path d="M41.1102 18.02H32.9302V19.42H41.1102V18.02Z" fill="#1E1E1E"/>
<path d="M41.1102 26.0801H32.9302V27.4801H41.1102V26.0801Z" fill="#1E1E1E"/>
<path d="M40.2799 26.8401H33.8799V28.2401H40.2799V26.8401Z" fill="#1E1E1E"/>
<path d="M40.2799 17.26H33.8799V18.66H40.2799V17.26Z" fill="#1E1E1E"/>
<path d="M43.8102 19.9202H41.4702V25.4702H43.8102V19.9202Z" fill="#1E1E1E"/>
<path d="M25.3999 19.0801H23.1299V26.4801H25.3999V19.0801Z" fill="#313131"/>
<path d="M25.3799 19.0701H23.1299V22.8601H25.3799V19.0701Z" fill="#1E1E1E"/>
<path d="M24.7399 18.1001H23.1299V19.1401H24.7399V18.1001Z" fill="#1E1E1E"/>
<path d="M24.7399 25.8901H23.1299V26.9302H24.7399V25.8901Z" fill="#1E1E1E"/>
<path d="M24.9599 20.8601H23.1299V23.6001H24.9599V20.8601Z" fill="white"/>
<path d="M24.3599 22.4202H23.1299V24.7101H24.3599V22.4202Z" fill="white"/>
<path d="M24.3599 19.6401H23.1299V21.9302H24.3599V19.6401Z" fill="white"/>
<path d="M23.5999 23.8501H23.1299V25.7101H23.5999V23.8501Z" fill="white"/>
<path d="M23.5999 18.5701H23.1299V20.4301H23.5999V18.5701Z" fill="white"/>
<path d="M32.6102 20.8201H24.7002V22.7201H32.6102V20.8201Z" fill="#1E1E1E"/>
<path d="M77.8299 245.87V93.8201H62.1599V111.03H58.8999V119.92H47.4299V111.03H43.7099V93.8201H30.3999V245.87H77.8299Z" fill="white"/>
<path d="M83.0402 97.5901H65.9102V102.11H83.0402V97.5901Z" fill="#E2E2E2"/>
<path d="M54.2102 119.89H52.4702V245.86H54.2102V119.89Z" fill="#E2E2E2"/>
</svg>
